# Exported from Wings 3D 1.4.1
mtllib box.mtl
o cube1
#152 vertices, 150 faces
v -0.12500000 -0.12500000 0.12500000
v -0.12500000 0.12500000 0.12500000
v 0.12500000 0.12500000 0.12500000
v 0.12500000 -0.12500000 0.12500000
v -0.12500000 -0.12500000 -0.12500000
v -0.12500000 0.12500000 -0.12500000
v 0.12500000 0.12500000 -0.12500000
v 0.12500000 -0.12500000 -0.12500000
v -7.5000000e-2 -0.12500000 0.12500000
v -2.5000000e-2 -0.12500000 0.12500000
v 2.5000000e-2 -0.12500000 0.12500000
v 7.5000000e-2 -0.12500000 0.12500000
v -0.12500000 -0.12500000 7.5000000e-2
v -0.12500000 -0.12500000 2.5000000e-2
v -0.12500000 -0.12500000 -2.5000000e-2
v -0.12500000 -0.12500000 -7.5000000e-2
v -7.5000000e-2 0.12500000 0.12500000
v -2.5000000e-2 0.12500000 0.12500000
v 2.5000000e-2 0.12500000 0.12500000
v 7.5000000e-2 0.12500000 0.12500000
v -0.12500000 0.12500000 7.5000000e-2
v -0.12500000 0.12500000 2.5000000e-2
v -0.12500000 0.12500000 -2.5000000e-2
v -0.12500000 0.12500000 -7.5000000e-2
v 0.12500000 0.12500000 7.5000000e-2
v 0.12500000 0.12500000 2.5000000e-2
v 0.12500000 0.12500000 -2.5000000e-2
v 0.12500000 0.12500000 -7.5000000e-2
v 0.12500000 -0.12500000 7.5000000e-2
v 0.12500000 -0.12500000 2.5000000e-2
v 0.12500000 -0.12500000 -2.5000000e-2
v 0.12500000 -0.12500000 -7.5000000e-2
v -7.5000000e-2 -0.12500000 -0.12500000
v -2.5000000e-2 -0.12500000 -0.12500000
v 2.5000000e-2 -0.12500000 -0.12500000
v 7.5000000e-2 -0.12500000 -0.12500000
v -7.5000000e-2 0.12500000 -0.12500000
v -2.5000000e-2 0.12500000 -0.12500000
v 2.5000000e-2 0.12500000 -0.12500000
v 7.5000000e-2 0.12500000 -0.12500000
v 7.5000000e-2 0.12500000 7.5000000e-2
v 7.5000000e-2 0.12500000 2.5000000e-2
v 7.5000000e-2 0.12500000 -2.5000000e-2
v 7.5000000e-2 0.12500000 -7.5000000e-2
v 2.5000000e-2 0.12500000 7.5000000e-2
v 2.5000000e-2 0.12500000 2.5000000e-2
v 2.5000000e-2 0.12500000 -2.5000000e-2
v 2.5000000e-2 0.12500000 -7.5000000e-2
v -2.5000000e-2 0.12500000 7.5000000e-2
v -2.5000000e-2 0.12500000 2.5000000e-2
v -2.5000000e-2 0.12500000 -2.5000000e-2
v -2.5000000e-2 0.12500000 -7.5000000e-2
v -7.5000000e-2 0.12500000 7.5000000e-2
v -7.5000000e-2 0.12500000 2.5000000e-2
v -7.5000000e-2 0.12500000 -2.5000000e-2
v -7.5000000e-2 0.12500000 -7.5000000e-2
v 7.5000000e-2 -0.12500000 -7.5000000e-2
v 7.5000000e-2 -0.12500000 -2.5000000e-2
v 7.5000000e-2 -0.12500000 2.5000000e-2
v 7.5000000e-2 -0.12500000 7.5000000e-2
v 2.5000000e-2 -0.12500000 -7.5000000e-2
v 2.5000000e-2 -0.12500000 -2.5000000e-2
v 2.5000000e-2 -0.12500000 2.5000000e-2
v 2.5000000e-2 -0.12500000 7.5000000e-2
v -2.5000000e-2 -0.12500000 -7.5000000e-2
v -2.5000000e-2 -0.12500000 -2.5000000e-2
v -2.5000000e-2 -0.12500000 2.5000000e-2
v -2.5000000e-2 -0.12500000 7.5000000e-2
v -7.5000000e-2 -0.12500000 -7.5000000e-2
v -7.5000000e-2 -0.12500000 -2.5000000e-2
v -7.5000000e-2 -0.12500000 2.5000000e-2
v -7.5000000e-2 -0.12500000 7.5000000e-2
v -0.12500000 -7.5000000e-2 0.12500000
v -0.12500000 -2.5000000e-2 0.12500000
v -0.12500000 2.5000000e-2 0.12500000
v -0.12500000 7.5000000e-2 0.12500000
v 0.12500000 7.5000000e-2 0.12500000
v 0.12500000 2.5000000e-2 0.12500000
v 0.12500000 -2.5000000e-2 0.12500000
v 0.12500000 -7.5000000e-2 0.12500000
v -0.12500000 -7.5000000e-2 -0.12500000
v -0.12500000 -2.5000000e-2 -0.12500000
v -0.12500000 2.5000000e-2 -0.12500000
v -0.12500000 7.5000000e-2 -0.12500000
v 0.12500000 7.5000000e-2 -0.12500000
v 0.12500000 2.5000000e-2 -0.12500000
v 0.12500000 -2.5000000e-2 -0.12500000
v 0.12500000 -7.5000000e-2 -0.12500000
v -7.5000000e-2 7.5000000e-2 0.12500000
v -7.5000000e-2 2.5000000e-2 0.12500000
v -7.5000000e-2 -2.5000000e-2 0.12500000
v -7.5000000e-2 -7.5000000e-2 0.12500000
v -2.5000000e-2 7.5000000e-2 0.12500000
v -2.5000000e-2 2.5000000e-2 0.12500000
v -2.5000000e-2 -2.5000000e-2 0.12500000
v -2.5000000e-2 -7.5000000e-2 0.12500000
v 2.5000000e-2 7.5000000e-2 0.12500000
v 2.5000000e-2 2.5000000e-2 0.12500000
v 2.5000000e-2 -2.5000000e-2 0.12500000
v 2.5000000e-2 -7.5000000e-2 0.12500000
v 7.5000000e-2 7.5000000e-2 0.12500000
v 7.5000000e-2 2.5000000e-2 0.12500000
v 7.5000000e-2 -2.5000000e-2 0.12500000
v 7.5000000e-2 -7.5000000e-2 0.12500000
v 0.12500000 7.5000000e-2 7.5000000e-2
v 0.12500000 2.5000000e-2 7.5000000e-2
v 0.12500000 -2.5000000e-2 7.5000000e-2
v 0.12500000 -7.5000000e-2 7.5000000e-2
v 0.12500000 7.5000000e-2 2.5000000e-2
v 0.12500000 2.5000000e-2 2.5000000e-2
v 0.12500000 -2.5000000e-2 2.5000000e-2
v 0.12500000 -7.5000000e-2 2.5000000e-2
v 0.12500000 7.5000000e-2 -2.5000000e-2
v 0.12500000 2.5000000e-2 -2.5000000e-2
v 0.12500000 -2.5000000e-2 -2.5000000e-2
v 0.12500000 -7.5000000e-2 -2.5000000e-2
v 0.12500000 7.5000000e-2 -7.5000000e-2
v 0.12500000 2.5000000e-2 -7.5000000e-2
v 0.12500000 -2.5000000e-2 -7.5000000e-2
v 0.12500000 -7.5000000e-2 -7.5000000e-2
v -7.5000000e-2 -7.5000000e-2 -0.12500000
v -7.5000000e-2 -2.5000000e-2 -0.12500000
v -7.5000000e-2 2.5000000e-2 -0.12500000
v -7.5000000e-2 7.5000000e-2 -0.12500000
v -2.5000000e-2 -7.5000000e-2 -0.12500000
v -2.5000000e-2 -2.5000000e-2 -0.12500000
v -2.5000000e-2 2.5000000e-2 -0.12500000
v -2.5000000e-2 7.5000000e-2 -0.12500000
v 2.5000000e-2 -7.5000000e-2 -0.12500000
v 2.5000000e-2 -2.5000000e-2 -0.12500000
v 2.5000000e-2 2.5000000e-2 -0.12500000
v 2.5000000e-2 7.5000000e-2 -0.12500000
v 7.5000000e-2 -7.5000000e-2 -0.12500000
v 7.5000000e-2 -2.5000000e-2 -0.12500000
v 7.5000000e-2 2.5000000e-2 -0.12500000
v 7.5000000e-2 7.5000000e-2 -0.12500000
v -0.12500000 -7.5000000e-2 7.5000000e-2
v -0.12500000 -2.5000000e-2 7.5000000e-2
v -0.12500000 2.5000000e-2 7.5000000e-2
v -0.12500000 7.5000000e-2 7.5000000e-2
v -0.12500000 -7.5000000e-2 2.5000000e-2
v -0.12500000 -2.5000000e-2 2.5000000e-2
v -0.12500000 2.5000000e-2 2.5000000e-2
v -0.12500000 7.5000000e-2 2.5000000e-2
v -0.12500000 -7.5000000e-2 -2.5000000e-2
v -0.12500000 -2.5000000e-2 -2.5000000e-2
v -0.12500000 2.5000000e-2 -2.5000000e-2
v -0.12500000 7.5000000e-2 -2.5000000e-2
v -0.12500000 -7.5000000e-2 -7.5000000e-2
v -0.12500000 -2.5000000e-2 -7.5000000e-2
v -0.12500000 2.5000000e-2 -7.5000000e-2
v -0.12500000 7.5000000e-2 -7.5000000e-2
vt 3.8033631e-2 0.35264247
vt 3.8155095e-2 0.41384842
vt 3.8248384e-2 0.47505953
vt 3.8364182e-2 0.53630591
vt 3.8501901e-2 0.59753388
vt 3.8590578e-2 0.65874296
vt 4.3766667e-2 0.90716942
vt 4.3766667e-2 0.95941111
vt 4.3766667e-2 0.80268603
vt 4.3766667e-2 0.85492772
vt 4.3766667e-2 0.75044433
vt 4.3766667e-2 0.69820264
vt 9.6008361e-2 0.69820264
vt 9.6008361e-2 0.85492772
vt 9.6008361e-2 0.75044433
vt 9.6008361e-2 0.80268603
vt 9.6008361e-2 0.90716942
vt 9.6008361e-2 0.95941111
vt 9.9267571e-2 0.35251918
vt 9.9377710e-2 0.41373847
vt 9.9483437e-2 0.47495672
vt 9.9590396e-2 0.53618836
vt 9.9707137e-2 0.59742263
vt 9.9799661e-2 0.65865428
vt 0.14825005 0.69820264
vt 0.14825005 0.75044433
vt 0.14825005 0.80268603
vt 0.14825005 0.90716942
vt 0.14825005 0.95941111
vt 0.14825005 0.85492772
vt 0.16050002 0.35242369
vt 0.16061096 0.41363404
vt 0.16071726 0.47484051
vt 0.16082526 0.53607926
vt 0.16093659 0.59731398
vt 0.16103858 0.65855607
vt 0.20049175 0.69820264
vt 0.20049175 0.85492772
vt 0.20049175 0.75044433
vt 0.20049175 0.80268603
vt 0.20049175 0.90716942
vt 0.20049175 0.95941111
vt 0.22173143 0.35231107
vt 0.22184884 0.41353348
vt 0.22195152 0.47474539
vt 0.22205680 0.53597417
vt 0.22216304 0.59721071
vt 0.22228443 0.65845725
vt 0.25273344 0.69820264
vt 0.25273344 0.75044433
vt 0.25273344 0.80268603
vt 0.25273344 0.85492772
vt 0.25273344 0.90716942
vt 0.25273344 0.95941111
vt 0.28294906 0.35220266
vt 0.28307168 0.41341954
vt 0.28318317 0.47463341
vt 0.28327880 0.53586887
vt 0.28337432 0.59709743
vt 0.28349480 0.65832760
vt 0.30497514 0.80268603
vt 0.30497514 0.69820264
vt 0.30497514 0.85492772
vt 0.30497514 0.90716942
vt 0.30497514 0.95941111
vt 0.30497514 0.75044433
vt 0.34367856 4.5928774e-2
vt 0.34376902 0.10716277
vt 0.34388727 0.16839518
vt 0.34398838 0.22962661
vt 0.34409367 0.29084424
vt 0.34418705 0.35208229
vt 0.34430567 0.41330859
vt 0.34440385 0.47453297
vt 0.34450091 0.53577045
vt 0.34460850 0.59699520
vt 0.34471579 0.65822693
vt 0.34482882 0.71944790
vt 0.34491284 0.78065834
vt 0.34502781 0.84190417
vt 0.34514336 0.90314306
vt 0.34526834 0.96435208
vt 0.40488456 4.5836589e-2
vt 0.40498832 0.10705921
vt 0.40509763 0.16829245
vt 0.40521083 0.22953031
vt 0.40531060 0.29075318
vt 0.40541340 0.35198718
vt 0.40552066 0.41320217
vt 0.40562567 0.47441941
vt 0.40573181 0.53565836
vt 0.40584299 0.59688598
vt 0.40594752 0.65812048
vt 0.40605904 0.71935464
vt 0.40615943 0.78056595
vt 0.40626988 0.84179239
vt 0.40637496 0.90302185
vt 0.40647736 0.96422710
vt 0.46609562 4.5716211e-2
vt 0.46620656 0.10695125
vt 0.46630410 0.16818510
vt 0.46642273 0.22941932
vt 0.46652449 0.29065099
vt 0.46663774 0.35187165
vt 0.46673789 0.41309349
vt 0.46685276 0.47432055
vt 0.46695766 0.53555761
vt 0.46707063 0.59678344
vt 0.46717227 0.65801436
vt 0.46728757 0.71923644
vt 0.46739597 0.78045843
vt 0.46750462 0.84168996
vt 0.46760926 0.90292484
vt 0.46770543 0.96415109
vt 0.52734204 4.5618218e-2
vt 0.52743821 0.10684447
vt 0.52754285 0.16807934
vt 0.52765150 0.22931088
vt 0.52775990 0.29053287
vt 0.52787520 0.35175495
vt 0.52797684 0.41298586
vt 0.52808981 0.47421170
vt 0.52819471 0.53544876
vt 0.52830957 0.59667582
vt 0.52840972 0.65789766
vt 0.52852298 0.71911831
vt 0.52862474 0.78034999
vt 0.52874337 0.84158420
vt 0.52884091 0.90281806
vt 0.52895185 0.96405310
vt 0.58857011 4.5542211e-2
vt 0.58867250 0.10674746
vt 0.58877759 0.16797692
vt 0.58888804 0.22920336
vt 0.58898843 0.29041466
vt 0.58909994 0.35164883
vt 0.58920448 0.41288332
vt 0.58931566 0.47411094
vt 0.58942180 0.53534990
vt 0.58952681 0.59656714
vt 0.58963407 0.65778213
vt 0.58973687 0.71901613
vt 0.58983664 0.78023900
vt 0.58994984 0.84147686
vt 0.59005915 0.90271009
vt 0.59016290 0.96393272
vt 0.64977913 4.5417228e-2
vt 0.64990411 0.10662625
vt 0.65001966 0.16786513
vt 0.65013463 0.22911096
vt 0.65021865 0.29032141
vt 0.65033167 0.35154238
vt 0.65043896 0.41277411
vt 0.65054656 0.47399885
vt 0.65064362 0.53523634
vt 0.65074180 0.59646072
vt 0.65086042 0.65768702
vt 0.65095380 0.71892507
vt 0.65105908 0.78014270
vt 0.65116020 0.84137413
vt 0.65127845 0.90260654
vt 0.65136891 0.96384053
vt 0.71155267 0.35144171
vt 0.71167314 0.41267187
vt 0.71176867 0.47390044
vt 0.71186430 0.53513590
vt 0.71197579 0.59634977
vt 0.71209841 0.65756664
vt 0.77276303 0.35131206
vt 0.77288443 0.41255860
vt 0.77299067 0.47379514
vt 0.77309595 0.53502392
vt 0.77319863 0.59623583
vt 0.77331604 0.65745824
vt 0.83400889 0.35121324
vt 0.83411088 0.41245533
vt 0.83422221 0.47369005
vt 0.83433021 0.53492880
vt 0.83443651 0.59613527
vt 0.83454745 0.65734561
vt 0.89524781 0.35111502
vt 0.89534033 0.41234668
vt 0.89545707 0.47358094
vt 0.89556403 0.53481259
vt 0.89566976 0.59603084
vt 0.89577990 0.65725013
vt 0.95645689 0.35102635
vt 0.95654557 0.41223543
vt 0.95668329 0.47346339
vt 0.95679908 0.53470978
vt 0.95689237 0.59592088
vt 0.95701384 0.65712683
vn -0.57735027 -0.57735027 0.57735027
vn -0.57735027 0.57735027 0.57735027
vn 0.57735027 0.57735027 0.57735027
vn 0.57735027 -0.57735027 0.57735027
vn -0.57735027 -0.57735027 -0.57735027
vn -0.57735027 0.57735027 -0.57735027
vn 0.57735027 0.57735027 -0.57735027
vn 0.57735027 -0.57735027 -0.57735027
vn 0.0000000e+0 -0.70710678 0.70710678
vn 0.0000000e+0 -0.70710678 0.70710678
vn 0.0000000e+0 -0.70710678 0.70710678
vn 0.0000000e+0 -0.70710678 0.70710678
vn -0.70710678 -0.70710678 0.0000000e+0
vn -0.70710678 -0.70710678 0.0000000e+0
vn -0.70710678 -0.70710678 0.0000000e+0
vn -0.70710678 -0.70710678 0.0000000e+0
vn 0.0000000e+0 0.70710678 0.70710678
vn 0.0000000e+0 0.70710678 0.70710678
vn 0.0000000e+0 0.70710678 0.70710678
vn 0.0000000e+0 0.70710678 0.70710678
vn -0.70710678 0.70710678 0.0000000e+0
vn -0.70710678 0.70710678 0.0000000e+0
vn -0.70710678 0.70710678 0.0000000e+0
vn -0.70710678 0.70710678 0.0000000e+0
vn 0.70710678 0.70710678 0.0000000e+0
vn 0.70710678 0.70710678 0.0000000e+0
vn 0.70710678 0.70710678 0.0000000e+0
vn 0.70710678 0.70710678 0.0000000e+0
vn 0.70710678 -0.70710678 0.0000000e+0
vn 0.70710678 -0.70710678 0.0000000e+0
vn 0.70710678 -0.70710678 0.0000000e+0
vn 0.70710678 -0.70710678 0.0000000e+0
vn 0.0000000e+0 -0.70710678 -0.70710678
vn 0.0000000e+0 -0.70710678 -0.70710678
vn 0.0000000e+0 -0.70710678 -0.70710678
vn 0.0000000e+0 -0.70710678 -0.70710678
vn 0.0000000e+0 0.70710678 -0.70710678
vn 0.0000000e+0 0.70710678 -0.70710678
vn 0.0000000e+0 0.70710678 -0.70710678
vn 0.0000000e+0 0.70710678 -0.70710678
vn 0.0000000e+0 1.00000000 0.0000000e+0
vn 0.0000000e+0 1.00000000 0.0000000e+0
vn 0.0000000e+0 1.00000000 0.0000000e+0
vn 0.0000000e+0 1.00000000 0.0000000e+0
vn 0.0000000e+0 1.00000000 0.0000000e+0
vn 0.0000000e+0 1.00000000 0.0000000e+0
vn 0.0000000e+0 1.00000000 0.0000000e+0
vn 0.0000000e+0 1.00000000 0.0000000e+0
vn 0.0000000e+0 1.00000000 0.0000000e+0
vn 0.0000000e+0 1.00000000 0.0000000e+0
vn 0.0000000e+0 1.00000000 0.0000000e+0
vn 0.0000000e+0 1.00000000 0.0000000e+0
vn 0.0000000e+0 1.00000000 0.0000000e+0
vn 0.0000000e+0 1.00000000 0.0000000e+0
vn 0.0000000e+0 1.00000000 0.0000000e+0
vn 0.0000000e+0 1.00000000 0.0000000e+0
vn 0.0000000e+0 -1.00000000 0.0000000e+0
vn 0.0000000e+0 -1.00000000 0.0000000e+0
vn 0.0000000e+0 -1.00000000 0.0000000e+0
vn 0.0000000e+0 -1.00000000 0.0000000e+0
vn 0.0000000e+0 -1.00000000 0.0000000e+0
vn 0.0000000e+0 -1.00000000 0.0000000e+0
vn 0.0000000e+0 -1.00000000 0.0000000e+0
vn 0.0000000e+0 -1.00000000 0.0000000e+0
vn 0.0000000e+0 -1.00000000 0.0000000e+0
vn 0.0000000e+0 -1.00000000 0.0000000e+0
vn 0.0000000e+0 -1.00000000 0.0000000e+0
vn 0.0000000e+0 -1.00000000 0.0000000e+0
vn 0.0000000e+0 -1.00000000 0.0000000e+0
vn 0.0000000e+0 -1.00000000 0.0000000e+0
vn 0.0000000e+0 -1.00000000 0.0000000e+0
vn 0.0000000e+0 -1.00000000 0.0000000e+0
vn -0.70710678 0.0000000e+0 0.70710678
vn -0.70710678 0.0000000e+0 0.70710678
vn -0.70710678 0.0000000e+0 0.70710678
vn -0.70710678 0.0000000e+0 0.70710678
vn 0.70710678 0.0000000e+0 0.70710678
vn 0.70710678 0.0000000e+0 0.70710678
vn 0.70710678 0.0000000e+0 0.70710678
vn 0.70710678 0.0000000e+0 0.70710678
vn -0.70710678 0.0000000e+0 -0.70710678
vn -0.70710678 0.0000000e+0 -0.70710678
vn -0.70710678 0.0000000e+0 -0.70710678
vn -0.70710678 0.0000000e+0 -0.70710678
vn 0.70710678 0.0000000e+0 -0.70710678
vn 0.70710678 0.0000000e+0 -0.70710678
vn 0.70710678 0.0000000e+0 -0.70710678
vn 0.70710678 0.0000000e+0 -0.70710678
vn 0.0000000e+0 0.0000000e+0 1.00000000
vn 0.0000000e+0 0.0000000e+0 1.00000000
vn 0.0000000e+0 0.0000000e+0 1.00000000
vn 0.0000000e+0 0.0000000e+0 1.00000000
vn 0.0000000e+0 0.0000000e+0 1.00000000
vn 0.0000000e+0 0.0000000e+0 1.00000000
vn 0.0000000e+0 0.0000000e+0 1.00000000
vn 0.0000000e+0 0.0000000e+0 1.00000000
vn 0.0000000e+0 0.0000000e+0 1.00000000
vn 0.0000000e+0 0.0000000e+0 1.00000000
vn 0.0000000e+0 0.0000000e+0 1.00000000
vn 0.0000000e+0 0.0000000e+0 1.00000000
vn 0.0000000e+0 0.0000000e+0 1.00000000
vn 0.0000000e+0 0.0000000e+0 1.00000000
vn 0.0000000e+0 0.0000000e+0 1.00000000
vn 0.0000000e+0 0.0000000e+0 1.00000000
vn 1.00000000 0.0000000e+0 0.0000000e+0
vn 1.00000000 0.0000000e+0 0.0000000e+0
vn 1.00000000 0.0000000e+0 0.0000000e+0
vn 1.00000000 0.0000000e+0 0.0000000e+0
vn 1.00000000 0.0000000e+0 0.0000000e+0
vn 1.00000000 0.0000000e+0 0.0000000e+0
vn 1.00000000 0.0000000e+0 0.0000000e+0
vn 1.00000000 0.0000000e+0 0.0000000e+0
vn 1.00000000 0.0000000e+0 0.0000000e+0
vn 1.00000000 0.0000000e+0 0.0000000e+0
vn 1.00000000 0.0000000e+0 0.0000000e+0
vn 1.00000000 0.0000000e+0 0.0000000e+0
vn 1.00000000 0.0000000e+0 0.0000000e+0
vn 1.00000000 0.0000000e+0 0.0000000e+0
vn 1.00000000 0.0000000e+0 0.0000000e+0
vn 1.00000000 0.0000000e+0 0.0000000e+0
vn 0.0000000e+0 0.0000000e+0 -1.00000000
vn 0.0000000e+0 0.0000000e+0 -1.00000000
vn 0.0000000e+0 0.0000000e+0 -1.00000000
vn 0.0000000e+0 0.0000000e+0 -1.00000000
vn 0.0000000e+0 0.0000000e+0 -1.00000000
vn 0.0000000e+0 0.0000000e+0 -1.00000000
vn 0.0000000e+0 0.0000000e+0 -1.00000000
vn 0.0000000e+0 0.0000000e+0 -1.00000000
vn 0.0000000e+0 0.0000000e+0 -1.00000000
vn 0.0000000e+0 0.0000000e+0 -1.00000000
vn 0.0000000e+0 0.0000000e+0 -1.00000000
vn 0.0000000e+0 0.0000000e+0 -1.00000000
vn 0.0000000e+0 0.0000000e+0 -1.00000000
vn 0.0000000e+0 0.0000000e+0 -1.00000000
vn 0.0000000e+0 0.0000000e+0 -1.00000000
vn 0.0000000e+0 0.0000000e+0 -1.00000000
vn -1.00000000 0.0000000e+0 0.0000000e+0
vn -1.00000000 0.0000000e+0 0.0000000e+0
vn -1.00000000 0.0000000e+0 0.0000000e+0
vn -1.00000000 0.0000000e+0 0.0000000e+0
vn -1.00000000 0.0000000e+0 0.0000000e+0
vn -1.00000000 0.0000000e+0 0.0000000e+0
vn -1.00000000 0.0000000e+0 0.0000000e+0
vn -1.00000000 0.0000000e+0 0.0000000e+0
vn -1.00000000 0.0000000e+0 0.0000000e+0
vn -1.00000000 0.0000000e+0 0.0000000e+0
vn -1.00000000 0.0000000e+0 0.0000000e+0
vn -1.00000000 0.0000000e+0 0.0000000e+0
vn -1.00000000 0.0000000e+0 0.0000000e+0
vn -1.00000000 0.0000000e+0 0.0000000e+0
vn -1.00000000 0.0000000e+0 0.0000000e+0
vn -1.00000000 0.0000000e+0 0.0000000e+0
g cube1_cube1_auv
usemtl cube1_auv
s 1
f 1/67/1 9/83/9 92/84/92 73/68/73
f 1/62/1 13/66/13 72/50/72 9/49/9
f 2/72/2 76/71/76 89/87/89 17/88/17
f 3/152/3 20/136/20 101/135/101 77/151/77
f 4/12/4 12/13/12 60/15/60 29/11/29
f 4/147/4 80/148/80 104/132/104 12/131/12
f 5/6/5 16/5/16 149/23/149 81/24/81
f 6/77/6 24/76/24 56/92/56 37/93/37
f 6/77/6 84/60/84 152/59/152 24/76/24
f 7/157/7 28/156/28 117/167/117 85/168/85
f 7/157/7 40/141/40 44/140/44 28/156/28
f 8/192/8 88/186/88 120/185/120 32/191/32
f 9/49/9 72/50/72 68/39/68 10/37/10
f 10/37/10 68/39/68 64/26/64 11/25/11
f 10/99/10 96/100/96 92/84/92 9/83/9
f 11/25/11 64/26/64 60/15/60 12/13/12
f 11/115/11 100/116/100 96/100/96 10/99/10
f 12/131/12 104/132/104 100/116/100 11/115/11
f 13/2/13 137/20/137 141/21/141 14/3/14
f 14/61/14 71/51/71 72/50/72 13/66/13
f 14/3/14 141/21/141 145/22/145 15/4/15
f 15/63/15 70/52/70 71/51/71 14/61/14
f 15/4/15 145/22/145 149/23/149 16/5/16
f 16/64/16 69/53/69 70/52/70 15/63/15
f 17/88/17 53/89/53 21/73/21 2/72/2
f 17/88/17 89/87/89 93/103/93 18/104/18
f 18/104/18 49/105/49 53/89/53 17/88/17
f 18/104/18 93/103/93 97/119/97 19/120/19
f 19/120/19 45/121/45 49/105/49 18/104/18
f 19/120/19 97/119/97 101/135/101 20/136/20
f 20/136/20 41/137/41 45/121/45 19/120/19
f 21/73/21 53/89/53 54/90/54 22/74/22
f 21/73/21 140/56/140 76/55/76 2/72/2
f 22/74/22 54/90/54 55/91/55 23/75/23
f 22/74/22 144/57/144 140/56/140 21/73/21
f 23/75/23 55/91/55 56/92/56 24/76/24
f 23/75/23 148/58/148 144/57/144 22/74/22
f 24/76/24 152/59/152 148/58/148 23/75/23
f 25/153/25 41/137/41 20/136/20 3/152/3
f 25/153/25 105/164/105 109/165/109 26/154/26
f 26/154/26 42/138/42 41/137/41 25/153/25
f 26/154/26 109/165/109 113/166/113 27/155/27
f 27/155/27 43/139/43 42/138/42 26/154/26
f 27/155/27 113/166/113 117/167/117 28/156/28
f 28/156/28 44/140/44 43/139/43 27/155/27
f 29/11/29 60/15/60 59/16/59 30/9/30
f 29/188/29 108/182/108 80/181/80 4/187/4
f 30/9/30 59/16/59 58/14/58 31/10/31
f 30/189/30 112/183/112 108/182/108 29/188/29
f 31/10/31 58/14/58 57/17/57 32/7/32
f 31/190/31 116/184/116 112/183/112 30/189/30
f 32/7/32 57/17/57 36/18/36 8/8/8
f 32/191/32 120/185/120 116/184/116 31/190/31
f 33/54/33 69/53/69 16/64/16 5/65/5
f 33/98/33 121/97/121 125/113/125 34/114/34
f 34/42/34 65/41/65 69/53/69 33/54/33
f 34/114/34 125/113/125 129/129/129 35/130/35
f 35/29/35 61/28/61 65/41/65 34/42/34
f 35/130/35 129/129/129 133/145/133 36/146/36
f 36/18/36 57/17/57 61/28/61 35/29/35
f 36/146/36 133/145/133 88/161/88 8/162/8
f 37/93/37 56/92/56 52/108/52 38/109/38
f 37/93/37 124/94/124 84/78/84 6/77/6
f 38/109/38 52/108/52 48/124/48 39/125/39
f 38/109/38 128/110/128 124/94/124 37/93/37
f 39/125/39 48/124/48 44/140/44 40/141/40
f 39/125/39 132/126/132 128/110/128 38/109/38
f 40/141/40 136/142/136 132/126/132 39/125/39
f 42/138/42 46/122/46 45/121/45 41/137/41
f 43/139/43 47/123/47 46/122/46 42/138/42
f 44/140/44 48/124/48 47/123/47 43/139/43
f 46/122/46 50/106/50 49/105/49 45/121/45
f 47/123/47 51/107/51 50/106/50 46/122/46
f 48/124/48 52/108/52 51/107/51 47/123/47
f 50/106/50 54/90/54 53/89/53 49/105/49
f 51/107/51 55/91/55 54/90/54 50/106/50
f 52/108/52 56/92/56 55/91/55 51/107/51
f 58/14/58 62/30/62 61/28/61 57/17/57
f 59/16/59 63/27/63 62/30/62 58/14/58
f 60/15/60 64/26/64 63/27/63 59/16/59
f 62/30/62 66/38/66 65/41/65 61/28/61
f 63/27/63 67/40/67 66/38/66 62/30/62
f 64/26/64 68/39/68 67/40/67 63/27/63
f 66/38/66 70/52/70 69/53/69 65/41/65
f 67/40/67 71/51/71 70/52/70 66/38/66
f 68/39/68 72/50/72 71/51/71 67/40/67
f 73/68/73 92/84/92 91/85/91 74/69/74
f 73/19/73 137/20/137 13/2/13 1/1/1
f 74/69/74 91/85/91 90/86/90 75/70/75
f 74/31/74 138/32/138 137/20/137 73/19/73
f 75/70/75 90/86/90 89/87/89 76/71/76
f 75/43/75 139/44/139 138/32/138 74/31/74
f 76/55/76 140/56/140 139/44/139 75/43/75
f 77/151/77 101/135/101 102/134/102 78/150/78
f 77/163/77 105/164/105 25/153/25 3/152/3
f 78/150/78 102/134/102 103/133/103 79/149/79
f 78/169/78 106/170/106 105/164/105 77/163/77
f 79/149/79 103/133/103 104/132/104 80/148/80
f 79/175/79 107/176/107 106/170/106 78/169/78
f 80/181/80 108/182/108 107/176/107 79/175/79
f 81/81/81 121/97/121 33/98/33 5/82/5
f 81/24/81 149/23/149 150/35/150 82/36/82
f 82/80/82 122/96/122 121/97/121 81/81/81
f 82/36/82 150/35/150 151/47/151 83/48/83
f 83/79/83 123/95/123 122/96/122 82/80/82
f 83/48/83 151/47/151 152/59/152 84/60/84
f 84/78/84 124/94/124 123/95/123 83/79/83
f 85/168/85 117/167/117 118/173/118 86/174/86
f 85/158/85 136/142/136 40/141/40 7/157/7
f 86/174/86 118/173/118 119/179/119 87/180/87
f 86/159/86 135/143/135 136/142/136 85/158/85
f 87/180/87 119/179/119 120/185/120 88/186/88
f 87/160/87 134/144/134 135/143/135 86/159/86
f 88/161/88 133/145/133 134/144/134 87/160/87
f 90/86/90 94/102/94 93/103/93 89/87/89
f 91/85/91 95/101/95 94/102/94 90/86/90
f 92/84/92 96/100/96 95/101/95 91/85/91
f 94/102/94 98/118/98 97/119/97 93/103/93
f 95/101/95 99/117/99 98/118/98 94/102/94
f 96/100/96 100/116/100 99/117/99 95/101/95
f 98/118/98 102/134/102 101/135/101 97/119/97
f 99/117/99 103/133/103 102/134/102 98/118/98
f 100/116/100 104/132/104 103/133/103 99/117/99
f 106/170/106 110/171/110 109/165/109 105/164/105
f 107/176/107 111/177/111 110/171/110 106/170/106
f 108/182/108 112/183/112 111/177/111 107/176/107
f 110/171/110 114/172/114 113/166/113 109/165/109
f 111/177/111 115/178/115 114/172/114 110/171/110
f 112/183/112 116/184/116 115/178/115 111/177/111
f 114/172/114 118/173/118 117/167/117 113/166/113
f 115/178/115 119/179/119 118/173/118 114/172/114
f 116/184/116 120/185/120 119/179/119 115/178/115
f 122/96/122 126/112/126 125/113/125 121/97/121
f 123/95/123 127/111/127 126/112/126 122/96/122
f 124/94/124 128/110/128 127/111/127 123/95/123
f 126/112/126 130/128/130 129/129/129 125/113/125
f 127/111/127 131/127/131 130/128/130 126/112/126
f 128/110/128 132/126/132 131/127/131 127/111/127
f 130/128/130 134/144/134 133/145/133 129/129/129
f 131/127/131 135/143/135 134/144/134 130/128/130
f 132/126/132 136/142/136 135/143/135 131/127/131
f 138/32/138 142/33/142 141/21/141 137/20/137
f 139/44/139 143/45/143 142/33/142 138/32/138
f 140/56/140 144/57/144 143/45/143 139/44/139
f 142/33/142 146/34/146 145/22/145 141/21/141
f 143/45/143 147/46/147 146/34/146 142/33/142
f 144/57/144 148/58/148 147/46/147 143/45/143
f 146/34/146 150/35/150 149/23/149 145/22/145
f 147/46/147 151/47/151 150/35/150 146/34/146
f 148/58/148 152/59/152 151/47/151 147/46/147
