# Exported from Wings 3D 1.4.1
mtllib battery.mtl
o cylinder1
#128 vertices, 114 faces
v 2.5500000e-2 3.5090855e-18 5.0000000e-2
v 2.3558928e-2 -9.7584275e-3 5.0000000e-2
v 1.8031223e-2 -1.8031223e-2 5.0000000e-2
v 9.7584275e-3 -2.3558928e-2 5.0000000e-2
v -4.2603768e-17 -2.5500000e-2 5.0000000e-2
v -9.7584275e-3 -2.3558928e-2 5.0000000e-2
v -1.8031223e-2 -1.8031223e-2 5.0000000e-2
v -2.3558928e-2 -9.7584275e-3 5.0000000e-2
v -2.5500000e-2 3.8623611e-19 5.0000000e-2
v -2.3558928e-2 9.7584275e-3 5.0000000e-2
v -1.8031223e-2 1.8031223e-2 5.0000000e-2
v -9.7584275e-3 2.3558928e-2 5.0000000e-2
v -4.8849466e-17 2.5500000e-2 5.0000000e-2
v 9.7584275e-3 2.3558928e-2 5.0000000e-2
v 1.8031223e-2 1.8031223e-2 5.0000000e-2
v 2.3558928e-2 9.7584275e-3 5.0000000e-2
v 2.5500000e-2 3.8623611e-19 -5.0000000e-2
v 2.3558928e-2 -9.7584275e-3 -5.0000000e-2
v 1.8031223e-2 -1.8031223e-2 -5.0000000e-2
v 9.7584275e-3 -2.3558928e-2 -5.0000000e-2
v -4.2603768e-17 -2.5500000e-2 -5.0000000e-2
v -9.7584275e-3 -2.3558928e-2 -5.0000000e-2
v -1.8031223e-2 -1.8031223e-2 -5.0000000e-2
v -2.3558928e-2 -9.7584275e-3 -5.0000000e-2
v -2.5500000e-2 -2.7366132e-18 -5.0000000e-2
v -2.3558928e-2 9.7584275e-3 -5.0000000e-2
v -1.8031223e-2 1.8031223e-2 -5.0000000e-2
v -9.7584275e-3 2.3558928e-2 -5.0000000e-2
v -4.8849466e-17 2.5500000e-2 -5.0000000e-2
v 9.7584275e-3 2.3558928e-2 -5.0000000e-2
v 1.8031223e-2 1.8031223e-2 -5.0000000e-2
v 2.3558928e-2 9.7584275e-3 -5.0000000e-2
v 1.6167000e-2 2.1402705e-19 -5.0451229e-2
v 1.4936360e-2 -6.1868431e-3 -5.0451229e-2
v 1.1431795e-2 -1.1431795e-2 -5.0451229e-2
v 6.1868431e-3 -1.4936360e-2 -5.0451229e-2
v -4.3042236e-17 -1.6167000e-2 -5.0451229e-2
v -6.1868431e-3 -1.4936360e-2 -5.0451229e-2
v -1.1431795e-2 -1.1431795e-2 -5.0451229e-2
v -1.4936360e-2 -6.1868431e-3 -5.0451229e-2
v -1.6167000e-2 -1.7658594e-18 -5.0451229e-2
v -1.4936360e-2 6.1868431e-3 -5.0451229e-2
v -1.1431795e-2 1.1431795e-2 -5.0451229e-2
v -6.1868431e-3 1.4936360e-2 -5.0451229e-2
v -4.7002009e-17 1.6167000e-2 -5.0451229e-2
v 6.1868431e-3 1.4936360e-2 -5.0451229e-2
v 1.1431795e-2 1.1431795e-2 -5.0451229e-2
v 1.4936360e-2 6.1868431e-3 -5.0451229e-2
v 1.2254586e-2 9.9875430e-20 -4.5826130e-2
v 1.1321761e-2 -4.6896270e-3 -4.5826130e-2
v 8.6653009e-3 -8.6653009e-3 -4.5826130e-2
v 4.6896270e-3 -1.1321761e-2 -4.5826130e-2
v -4.3226042e-17 -1.2254586e-2 -4.5826130e-2
v -4.6896270e-3 -1.1321761e-2 -4.5826130e-2
v -8.6653009e-3 -8.6653009e-3 -4.5826130e-2
v -1.1321761e-2 -4.6896270e-3 -4.5826130e-2
v -1.2254586e-2 -1.4008785e-18 -4.5826130e-2
v -1.1321761e-2 4.6896270e-3 -4.5826130e-2
v -8.6653009e-3 8.6653009e-3 -4.5826130e-2
v -4.6896270e-3 1.1321761e-2 -4.5826130e-2
v -4.6227550e-17 1.2254586e-2 -4.5826130e-2
v 4.6896270e-3 1.1321761e-2 -4.5826130e-2
v 8.6653009e-3 8.6653009e-3 -4.5826130e-2
v 1.1321761e-2 4.6896270e-3 -4.5826130e-2
v 9.7898654e-3 -4.0550950e-3 5.4286677e-2
v 1.0596474e-2 2.0304239e-18 5.4286677e-2
v 9.7898654e-3 4.0550950e-3 5.4286677e-2
v 7.4928386e-3 7.4928386e-3 5.4286677e-2
v 4.0550950e-3 9.7898654e-3 5.4286677e-2
v -4.5918736e-17 1.0596474e-2 5.4286677e-2
v -4.0550950e-3 9.7898654e-3 5.4286677e-2
v -7.4928386e-3 7.4928386e-3 5.4286677e-2
v -9.7898654e-3 4.0550950e-3 5.4286677e-2
v -1.0596474e-2 7.3273015e-19 5.4286677e-2
v -9.7898654e-3 -4.0550950e-3 5.4286677e-2
v -7.4928386e-3 -7.4928386e-3 5.4286677e-2
v -4.0550950e-3 -9.7898654e-3 5.4286677e-2
v -4.3323348e-17 -1.0596474e-2 5.4286677e-2
v 4.0550950e-3 -9.7898654e-3 5.4286677e-2
v 7.4928386e-3 -7.4928386e-3 5.4286677e-2
v 9.7898654e-3 -4.0550950e-3 5.8798968e-2
v 1.0596474e-2 2.0304239e-18 5.8798968e-2
v 9.7898654e-3 4.0550950e-3 5.8798968e-2
v 7.4928386e-3 7.4928386e-3 5.8798968e-2
v 4.0550950e-3 9.7898654e-3 5.8798968e-2
v -4.5918736e-17 1.0596474e-2 5.8798968e-2
v -4.0550950e-3 9.7898654e-3 5.8798968e-2
v -7.4928386e-3 7.4928386e-3 5.8798968e-2
v -9.7898654e-3 4.0550950e-3 5.8798968e-2
v -1.0596474e-2 7.3273015e-19 5.8798968e-2
v -9.7898654e-3 -4.0550950e-3 5.8798968e-2
v -7.4928386e-3 -7.4928386e-3 5.8798968e-2
v -4.0550950e-3 -9.7898654e-3 5.8798968e-2
v -4.3323348e-17 -1.0596474e-2 5.8798968e-2
v 4.0550950e-3 -9.7898654e-3 5.8798968e-2
v 7.4928386e-3 -7.4928386e-3 5.8798968e-2
v 2.5500000e-2 2.4681357e-18 1.6666667e-2
v 2.5500000e-2 1.4271859e-18 -1.6666667e-2
v 2.3558928e-2 -9.7584275e-3 1.6666667e-2
v 2.3558928e-2 -9.7584275e-3 -1.6666667e-2
v 1.8031223e-2 -1.8031223e-2 1.6666667e-2
v 1.8031223e-2 -1.8031223e-2 -1.6666667e-2
v 9.7584275e-3 -2.3558928e-2 1.6666667e-2
v 9.7584275e-3 -2.3558928e-2 -1.6666667e-2
v -4.2603768e-17 -2.5500000e-2 1.6666667e-2
v -4.2603768e-17 -2.5500000e-2 -1.6666667e-2
v -9.7584275e-3 -2.3558928e-2 1.6666667e-2
v -9.7584275e-3 -2.3558928e-2 -1.6666667e-2
v -1.8031223e-2 -1.8031223e-2 1.6666667e-2
v -1.8031223e-2 -1.8031223e-2 -1.6666667e-2
v -2.3558928e-2 -9.7584275e-3 1.6666667e-2
v -2.3558928e-2 -9.7584275e-3 -1.6666667e-2
v -2.5500000e-2 -6.5471367e-19 1.6666667e-2
v -2.5500000e-2 -1.6956634e-18 -1.6666667e-2
v -2.3558928e-2 9.7584275e-3 1.6666667e-2
v -2.3558928e-2 9.7584275e-3 -1.6666667e-2
v -1.8031223e-2 1.8031223e-2 1.6666667e-2
v -1.8031223e-2 1.8031223e-2 -1.6666667e-2
v -9.7584275e-3 2.3558928e-2 1.6666667e-2
v -9.7584275e-3 2.3558928e-2 -1.6666667e-2
v -4.8849466e-17 2.5500000e-2 1.6666667e-2
v -4.8849466e-17 2.5500000e-2 -1.6666667e-2
v 9.7584275e-3 2.3558928e-2 1.6666667e-2
v 9.7584275e-3 2.3558928e-2 -1.6666667e-2
v 1.8031223e-2 1.8031223e-2 1.6666667e-2
v 1.8031223e-2 1.8031223e-2 -1.6666667e-2
v 2.3558928e-2 9.7584275e-3 1.6666667e-2
v 2.3558928e-2 9.7584275e-3 -1.6666667e-2
vt 0.0000000e+0 0.20938852
vt 0.0000000e+0 0.41877703
vt 2.2204460e-16 6.1062266e-16
vt 2.2204460e-16 0.62816555
vt 6.2500000e-2 0.20938852
vt 6.2500000e-2 0.41877703
vt 6.2500000e-2 0.62816555
vt 6.2500000e-2 6.1062266e-16
vt 7.8577778e-2 0.81924507
vt 9.1055429e-2 0.75293514
vt 9.2077192e-2 0.88557685
vt 0.12500000 0.41877703
vt 0.12500000 6.1062266e-16
vt 0.12500000 0.20938852
vt 0.12500000 0.62816555
vt 0.12757344 0.69619773
vt 0.12992608 0.94222172
vt 0.18281839 0.81810698
vt 0.18297344 0.65730069
vt 0.18706104 0.98062472
vt 0.18750000 0.20938852
vt 0.18750000 0.41877703
vt 0.18750000 7.2164497e-16
vt 0.18750000 0.62816555
vt 0.18778808 0.79145267
vt 0.18834985 0.84462186
vt 0.20250040 0.76867774
vt 0.20360858 0.86703198
vt 0.20616563 0.81778436
vt 0.20947569 0.80008837
vt 0.20984813 0.83538373
vt 0.21923558 0.78496060
vt 0.22000712 0.85022672
vt 0.22474379 0.75322240
vt 0.22636849 0.88190829
vt 0.23400769 0.77470959
vt 0.23507752 0.86003648
vt 0.24939966 0.64217666
vt 0.25000000 4.9960036e-16
vt 0.25000000 0.41877703
vt 0.25000000 0.20938852
vt 0.25000000 0.62816555
vt 0.25123048 0.74743470
vt 0.25158894 0.77091237
vt 0.25276614 0.86327088
vt 0.25312460 0.88674854
vt 0.25495542 0.99200658
vt 0.26927756 0.77414676
vt 0.27034739 0.85947366
vt 0.27798660 0.75227496
vt 0.27961130 0.88096084
vt 0.28434796 0.78395653
vt 0.28511951 0.84922265
vt 0.29450696 0.79879951
vt 0.29487939 0.83409488
vt 0.29818945 0.81639888
vt 0.30074650 0.76715126
vt 0.30185469 0.86550550
vt 0.31250000 0.20938852
vt 0.31250000 0.62816555
vt 0.31250000 7.7715612e-16
vt 0.31250000 0.41877703
vt 0.31600523 0.78956138
vt 0.31656700 0.84273057
vt 0.31729405 0.65355852
vt 0.32138164 0.97688255
vt 0.32153669 0.81607626
vt 0.37442900 0.69196153
vt 0.37500000 7.2164497e-16
vt 0.37500000 0.20938852
vt 0.37500000 0.41877703
vt 0.37500000 0.62816555
vt 0.37678165 0.93798551
vt 0.41227789 0.74860639
vt 0.41329966 0.88124811
vt 0.42577731 0.81493818
vt 0.43750000 6.1062266e-16
vt 0.43750000 0.20938852
vt 0.43750000 0.62816555
vt 0.43750000 0.41877703
vt 0.50000000 6.1062266e-16
vt 0.50000000 0.20938852
vt 0.50000000 0.41877703
vt 0.50000000 0.62816555
vt 0.56250000 7.2164497e-16
vt 0.56250000 0.20938852
vt 0.56250000 0.41877703
vt 0.56250000 0.62816555
vt 0.60156620 0.81548939
vt 0.61413024 0.75145969
vt 0.61434462 0.87973087
vt 0.62500000 6.1062266e-16
vt 0.62500000 0.20938852
vt 0.62500000 0.62816555
vt 0.62500000 0.41877703
vt 0.65001423 0.69707579
vt 0.65099665 0.93462467
vt 0.66303500 0.81527794
vt 0.67092827 0.77463315
vt 0.67130342 0.85591598
vt 0.68750000 7.2164497e-16
vt 0.68750000 0.20938852
vt 0.68750000 0.41877703
vt 0.68750000 0.62816555
vt 0.69369990 0.74008977
vt 0.69458434 0.89035632
vt 0.69985930 0.81506353
vt 0.70383562 0.66035348
vt 0.70496986 0.78847908
vt 0.70531420 0.84158646
vt 0.70645175 0.97042178
vt 0.71986094 0.76584856
vt 0.72052654 0.86400901
vt 0.72788632 0.71678566
vt 0.72938127 0.91310083
vt 0.74225803 0.75060863
vt 0.74318211 0.87887212
vt 0.75000000 3.3306691e-16
vt 0.75000000 0.20938852
vt 0.75000000 0.62816555
vt 0.75000000 0.41877703
vt 0.76766297 0.64679888
vt 0.76840394 0.70826358
vt 0.76876010 0.74508679
vt 0.76978637 0.88391542
vt 0.77014253 0.92073863
vt 0.77088350 0.98220333
vt 0.79536436 0.75013009
vt 0.79628844 0.87839358
vt 0.80916520 0.71590138
vt 0.81066015 0.91221656
vt 0.81250000 7.7715612e-16
vt 0.81250000 0.62816555
vt 0.81250000 0.41877703
vt 0.81250000 0.20938852
vt 0.81801993 0.76499320
vt 0.81868553 0.86315365
vt 0.83209472 0.65858043
vt 0.83323227 0.78741575
vt 0.83357661 0.84052313
vt 0.83471085 0.96864873
vt 0.83868717 0.81393868
vt 0.84396213 0.73864589
vt 0.84484657 0.88891244
vt 0.86724305 0.77308623
vt 0.86761820 0.85436906
vt 0.87500000 0.20938852
vt 0.87500000 0.62816555
vt 0.87500000 1.1102230e-16
vt 0.87500000 0.41877703
vt 0.87551147 0.81372427
vt 0.88754982 0.69437754
vt 0.88853224 0.93192642
vt 0.92420185 0.74927134
vt 0.92441623 0.87754252
vt 0.93698027 0.81351282
vt 0.93750000 4.9960036e-16
vt 0.93750000 0.62816555
vt 0.93750000 0.20938852
vt 0.93750000 0.41877703
vt 1.00000000 0.20938852
vt 1.00000000 0.0000000e+0
vt 1.00000000 0.41877703
vt 1.00000000 0.62816555
vn 0.79481151 1.5578302e-16 0.60685638
vn 0.73431008 -0.30416120 0.60685638
vn 0.56201661 -0.56201661 0.60685638
vn 0.30416120 -0.73431008 0.60685638
vn -3.2911905e-17 -0.79481151 0.60685638
vn -0.30416120 -0.73431008 0.60685638
vn -0.56201661 -0.56201661 0.60685638
vn -0.73431008 -0.30416120 0.60685638
vn -0.79481151 -1.4920064e-16 0.60685638
vn -0.73431008 0.30416120 0.60685638
vn -0.56201661 0.56201661 0.60685638
vn -0.30416120 0.73431008 0.60685638
vn -1.6236540e-16 0.79481151 0.60685638
vn 0.30416120 0.73431008 0.60685638
vn 0.56201661 0.56201661 0.60685638
vn 0.73431008 0.30416120 0.60685638
vn 0.71758775 1.4515759e-16 -0.69646811
vn 0.66296463 -0.27460894 -0.69646811
vn 0.50741116 -0.50741116 -0.69646811
vn 0.27460894 -0.66296463 -0.69646811
vn -9.6771729e-18 -0.71758775 -0.69646811
vn -0.27460894 -0.66296463 -0.69646811
vn -0.50741116 -0.50741116 -0.69646811
vn -0.66296463 -0.27460894 -0.69646811
vn -0.71758775 -1.3548042e-16 -0.69646811
vn -0.66296463 0.27460894 -0.69646811
vn -0.50741116 0.50741116 -0.69646811
vn -0.27460894 0.66296463 -0.69646811
vn -1.3548042e-16 0.71758775 -0.69646811
vn 0.27460894 0.66296463 -0.69646811
vn 0.50741116 0.50741116 -0.69646811
vn 0.66296463 0.27460894 -0.69646811
vn -0.39620861 -5.4476443e-17 -0.91816052
vn -0.36604902 0.15162247 -0.91816052
vn -0.28016179 0.28016179 -0.91816052
vn -0.15162247 0.36604902 -0.91816052
vn 7.7823490e-18 0.39620861 -0.91816052
vn 0.15162247 0.36604902 -0.91816052
vn 0.28016179 0.28016179 -0.91816052
vn 0.36604902 0.15162247 -0.91816052
vn 0.39620861 5.4476443e-17 -0.91816052
vn 0.36604902 -0.15162247 -0.91816052
vn 0.28016179 -0.28016179 -0.91816052
vn 0.15162247 -0.36604902 -0.91816052
vn 8.5605839e-17 -0.39620861 -0.91816052
vn -0.15162247 -0.36604902 -0.91816052
vn -0.28016179 -0.28016179 -0.91816052
vn -0.36604902 -0.15162247 -0.91816052
vn -0.55257761 -8.1275190e-17 -0.83346145
vn -0.51051514 0.21146230 -0.83346145
vn -0.39073137 0.39073137 -0.83346145
vn -0.21146230 0.51051514 -0.83346145
vn -3.0478196e-17 0.55257761 -0.83346145
vn 0.21146230 0.51051514 -0.83346145
vn 0.39073137 0.39073137 -0.83346145
vn 0.51051514 0.21146230 -0.83346145
vn 0.55257761 8.1275190e-17 -0.83346145
vn 0.51051514 -0.21146230 -0.83346145
vn 0.39073137 -0.39073137 -0.83346145
vn 0.21146230 -0.51051514 -0.83346145
vn 8.1275190e-17 -0.55257761 -0.83346145
vn -0.21146230 -0.51051514 -0.83346145
vn -0.39073137 -0.39073137 -0.83346145
vn -0.51051514 -0.21146230 -0.83346145
vn 0.73431008 -0.30416120 0.60685638
vn 0.79481151 3.4228381e-16 0.60685638
vn 0.73431008 0.30416120 0.60685638
vn 0.56201661 0.56201661 0.60685638
vn 0.30416120 0.73431008 0.60685638
vn -1.8430667e-16 0.79481151 0.60685638
vn -0.30416120 0.73431008 0.60685638
vn -0.56201661 0.56201661 0.60685638
vn -0.73431008 0.30416120 0.60685638
vn -0.79481151 -1.6675365e-16 0.60685638
vn -0.73431008 -0.30416120 0.60685638
vn -0.56201661 -0.56201661 0.60685638
vn -0.30416120 -0.73431008 0.60685638
vn -3.5106032e-17 -0.79481151 0.60685638
vn 0.30416120 -0.73431008 0.60685638
vn 0.56201661 -0.56201661 0.60685638
vn 0.82309273 -0.34093617 0.45418155
vn 0.89090915 4.1600032e-16 0.45418155
vn 0.82309273 0.34093617 0.45418155
vn 0.62996790 0.62996790 0.45418155
vn 0.34093617 0.82309273 0.45418155
vn -2.3951534e-16 0.89090915 0.45418155
vn -0.34093617 0.82309273 0.45418155
vn -0.62996790 0.62996790 0.45418155
vn -0.82309273 0.34093617 0.45418155
vn -0.89090915 -2.0169712e-16 0.45418155
vn -0.82309273 -0.34093617 0.45418155
vn -0.62996790 -0.62996790 0.45418155
vn -0.34093617 -0.82309273 0.45418155
vn -7.5636422e-17 -0.89090915 0.45418155
vn 0.34093617 -0.82309273 0.45418155
vn 0.62996790 -0.62996790 0.45418155
vn 1.00000000 1.8394571e-16 -1.3020022e-18
vn 1.00000000 1.9809538e-16 3.9273223e-33
vn 0.92387953 -0.38268343 5.2080088e-18
vn 0.92387953 -0.38268343 5.2080088e-18
vn 0.70710678 -0.70710678 2.6040044e-18
vn 0.70710678 -0.70710678 2.6040044e-18
vn 0.38268343 -0.92387953 0.0000000e+0
vn 0.38268343 -0.92387953 0.0000000e+0
vn -2.8299339e-17 -1.00000000 0.0000000e+0
vn -1.4149670e-17 -1.00000000 0.0000000e+0
vn -0.38268343 -0.92387953 0.0000000e+0
vn -0.38268343 -0.92387953 0.0000000e+0
vn -0.70710678 -0.70710678 7.8120133e-18
vn -0.70710678 -0.70710678 2.6040044e-18
vn -0.92387953 -0.38268343 1.1718020e-17
vn -0.92387953 -0.38268343 6.5100111e-18
vn -1.00000000 -1.7687087e-16 1.3020022e-18
vn -1.00000000 -1.6272120e-16 -7.8546446e-34
vn -0.92387953 0.38268343 -5.2080088e-18
vn -0.92387953 0.38268343 -6.5100111e-18
vn -0.70710678 0.70710678 -2.6040044e-18
vn -0.70710678 0.70710678 -2.6040044e-18
vn -0.38268343 0.92387953 0.0000000e+0
vn -0.38268343 0.92387953 0.0000000e+0
vn -1.8394571e-16 1.00000000 0.0000000e+0
vn -1.8394571e-16 1.00000000 0.0000000e+0
vn 0.38268343 0.92387953 0.0000000e+0
vn 0.38268343 0.92387953 0.0000000e+0
vn 0.70710678 0.70710678 -7.8120133e-18
vn 0.70710678 0.70710678 -5.2080088e-18
vn 0.92387953 0.38268343 -1.1718020e-17
vn 0.92387953 0.38268343 -7.8120133e-18
g cylinder1_cylinder1_auv
usemtl cylinder1_auv
s 1
f 1/76/1 66/67/66 65/63/65 2/74/2
f 1/39/1 97/41/97 127/21/127 16/23/16
f 2/74/2 65/63/65 80/57/80 3/68/3
f 2/61/2 99/59/99 97/41/97 1/39/1
f 3/68/3 80/57/80 79/50/79 4/65/4
f 3/69/3 101/70/101 99/59/99 2/61/2
f 4/65/4 79/50/79 78/43/78 5/38/5
f 4/77/4 103/78/103 101/70/101 3/69/3
f 5/38/5 78/43/78 77/34/77 6/19/6
f 5/81/5 105/82/105 103/78/103 4/77/4
f 6/19/6 77/34/77 76/27/76 7/16/7
f 6/85/6 107/86/107 105/82/105 5/81/5
f 7/16/7 76/27/76 75/25/75 8/10/8
f 7/92/7 109/93/109 107/86/107 6/85/6
f 8/10/8 75/25/75 74/18/74 9/9/9
f 8/101/8 111/102/111 109/93/109 7/92/7
f 9/9/9 74/18/74 73/26/73 10/11/10
f 9/118/9 113/119/113 111/102/111 8/101/8
f 10/11/10 73/26/73 72/28/72 11/17/11
f 10/132/10 115/135/115 113/119/113 9/118/9
f 11/17/11 72/28/72 71/35/71 12/20/12
f 11/149/11 117/147/117 115/135/115 10/132/10
f 12/20/12 71/35/71 70/46/70 13/47/13
f 12/157/12 119/159/119 117/147/117 11/149/11
f 13/47/13 70/46/70 69/51/69 14/66/14
f 13/162/13 121/161/121 119/159/119 12/157/12
f 14/66/14 69/51/69 68/58/68 15/73/15
f 14/8/14 123/5/123 121/1/121 13/3/13
f 15/73/15 68/58/68 67/64/67 16/75/16
f 15/13/15 125/14/125 123/5/123 14/8/14
f 16/75/16 67/64/67 66/67/66 1/76/1
f 16/23/16 127/21/127 125/14/125 15/13/15
f 17/89/17 33/98/33 48/100/48 32/91/32
f 17/42/17 98/40/98 100/62/100 18/60/18
f 18/90/18 34/99/34 33/98/33 17/89/17
f 18/60/18 100/62/100 102/71/102 19/72/19
f 19/96/19 35/105/35 34/99/34 18/90/18
f 19/72/19 102/71/102 104/80/104 20/79/20
f 20/108/20 36/114/36 35/105/35 19/96/19
f 20/79/20 104/80/104 106/83/106 21/84/21
f 21/122/21 37/123/37 36/114/36 20/108/20
f 21/84/21 106/83/106 108/87/108 22/88/22
f 22/138/22 38/130/38 37/123/37 21/122/21
f 22/88/22 108/87/108 110/95/110 23/94/23
f 23/152/23 39/143/39 38/130/38 22/138/22
f 23/94/23 110/95/110 112/103/112 24/104/24
f 24/154/24 40/145/40 39/143/39 23/152/23
f 24/104/24 112/103/112 114/121/114 25/120/25
f 25/156/25 41/151/41 40/145/40 24/154/24
f 25/120/25 114/121/114 116/134/116 26/133/26
f 26/155/26 42/146/42 41/151/41 25/156/25
f 26/133/26 116/134/116 118/150/118 27/148/27
f 27/153/27 43/144/43 42/146/42 26/155/26
f 27/148/27 118/150/118 120/160/120 28/158/28
f 28/141/28 44/131/44 43/144/43 27/153/27
f 28/158/28 120/160/120 122/163/122 29/164/29
f 29/127/29 45/126/45 44/131/44 28/141/28
f 29/4/29 122/2/122 124/6/124 30/7/30
f 30/111/30 46/115/46 45/126/45 29/127/29
f 30/7/30 124/6/124 126/12/126 31/15/31
f 31/97/31 47/106/47 46/115/46 30/111/30
f 31/15/31 126/12/126 128/22/128 32/24/32
f 32/91/32 48/100/48 47/106/47 31/97/31
f 32/24/32 128/22/128 98/40/98 17/42/17
f 33/98/33 49/107/49 64/110/64 48/100/48
f 34/99/34 50/109/50 49/107/49 33/98/33
f 35/105/35 51/112/51 50/109/50 34/99/34
f 36/114/36 52/116/52 51/112/51 35/105/35
f 37/123/37 53/124/53 52/116/52 36/114/36
f 38/130/38 54/128/54 53/124/53 37/123/37
f 39/143/39 55/136/55 54/128/54 38/130/38
f 40/145/40 56/139/56 55/136/55 39/143/39
f 41/151/41 57/142/57 56/139/56 40/145/40
f 42/146/42 58/140/58 57/142/57 41/151/41
f 43/144/43 59/137/59 58/140/58 42/146/42
f 44/131/44 60/129/60 59/137/59 43/144/43
f 45/126/45 61/125/61 60/129/60 44/131/44
f 46/115/46 62/117/62 61/125/61 45/126/45
f 47/106/47 63/113/63 62/117/62 46/115/46
f 48/100/48 64/110/64 63/113/63 47/106/47
f 50/109/50 51/112/51 52/116/52 53/124/53 54/128/54 55/136/55 56/139/56 57/142/57 58/140/58 59/137/59 60/129/60 61/125/61 62/117/62 63/113/63 64/110/64 49/107/49
f 65/63/65 81/54/81 96/52/96 80/57/80
f 66/67/66 82/56/82 81/54/81 65/63/65
f 67/64/67 83/55/83 82/56/82 66/67/66
f 68/58/68 84/53/84 83/55/83 67/64/67
f 69/51/69 85/49/85 84/53/84 68/58/68
f 70/46/70 86/45/86 85/49/85 69/51/69
f 71/35/71 87/37/87 86/45/86 70/46/70
f 72/28/72 88/33/88 87/37/87 71/35/71
f 73/26/73 89/31/89 88/33/88 72/28/72
f 74/18/74 90/29/90 89/31/89 73/26/73
f 75/25/75 91/30/91 90/29/90 74/18/74
f 76/27/76 92/32/92 91/30/91 75/25/75
f 77/34/77 93/36/93 92/32/92 76/27/76
f 78/43/78 94/44/94 93/36/93 77/34/77
f 79/50/79 95/48/95 94/44/94 78/43/78
f 80/57/80 96/52/96 95/48/95 79/50/79
f 82/56/82 83/55/83 84/53/84 85/49/85 86/45/86 87/37/87 88/33/88 89/31/89 90/29/90 91/30/91 92/32/92 93/36/93 94/44/94 95/48/95 96/52/96 81/54/81
f 97/41/97 99/59/99 100/62/100 98/40/98
f 98/40/98 128/22/128 127/21/127 97/41/97
f 99/59/99 101/70/101 102/71/102 100/62/100
f 101/70/101 103/78/103 104/80/104 102/71/102
f 103/78/103 105/82/105 106/83/106 104/80/104
f 105/82/105 107/86/107 108/87/108 106/83/106
f 107/86/107 109/93/109 110/95/110 108/87/108
f 109/93/109 111/102/111 112/103/112 110/95/110
f 111/102/111 113/119/113 114/121/114 112/103/112
f 113/119/113 115/135/115 116/134/116 114/121/114
f 115/135/115 117/147/117 118/150/118 116/134/116
f 117/147/117 119/159/119 120/160/120 118/150/118
f 119/159/119 121/161/121 122/163/122 120/160/120
f 121/1/121 123/5/123 124/6/124 122/2/122
f 123/5/123 125/14/125 126/12/126 124/6/124
f 125/14/125 127/21/127 128/22/128 126/12/126
