# Exported from Wings 3D 1.4.1
mtllib char2_arm_l.mtl
o cylinder2
#71 vertices, 71 faces
v 0.31690752 -3.7916276e-2 0.25177151
v 0.31499781 -4.7405044e-2 0.25030936
v 0.30955941 -5.5449234e-2 0.24906980
v 0.30142028 -6.0824189e-2 0.24824155
v 0.29181952 -6.2711623e-2 0.24795071
v 0.28221875 -6.0824189e-2 0.24824155
v 0.27407962 -5.5449234e-2 0.24906980
v 0.26864123 -4.7405044e-2 0.25030936
v 0.26673152 -3.7916276e-2 0.25177151
v 0.26864123 -2.8427507e-2 0.25323367
v 0.27407962 -2.0383318e-2 0.25447323
v 0.28221875 -1.5008362e-2 0.25530147
v 0.29181952 -1.3120929e-2 0.25559231
v 0.30142028 -1.5008362e-2 0.25530147
v 0.30955941 -2.0383318e-2 0.25447323
v 0.31499781 -2.8427507e-2 0.25323367
v 0.28221875 -2.6709911e-2 2.6854527e-2
v 0.27407962 -2.1334955e-2 2.7682772e-2
v 0.26864123 -1.3290766e-2 2.8922328e-2
v 0.26673152 -3.8019974e-3 3.0384485e-2
v 0.26864123 5.6867712e-3 3.1846641e-2
v 0.27407962 1.3730961e-2 3.3086198e-2
v 0.28221875 1.9105916e-2 3.3914443e-2
v 0.27407962 -3.7916276e-2 0.25177151
v 0.30955941 -3.7916276e-2 0.25177151
v 0.29773281 -5.5449234e-2 0.24906980
v 0.28590622 -5.5449234e-2 0.24906980
v 0.28590622 -2.0383318e-2 0.25447323
v 0.29773281 -2.0383318e-2 0.25447323
v 0.28590622 -3.9728830e-2 0.26353421
v 0.29773281 -3.9728830e-2 0.26353421
v 0.29773281 8.2451776e-4 0.29975267
v 0.28590622 8.2451776e-4 0.29975267
v 0.28590622 -1.8520995e-2 0.30881365
v 0.29773281 -1.8520995e-2 0.30881365
v 0.28590622 -8.9304142e-2 0.28586443
v 0.29773281 -8.9304142e-2 0.28586443
v 0.29773281 -7.3583738e-2 0.30032885
v 0.28590622 -7.3583738e-2 0.30032885
v 0.28590622 -8.6983215e-2 0.30394645
v 0.29773281 -8.6983215e-2 0.30394645
v 0.29773281 -6.8321331e-3 0.31629721
v 0.28590622 -6.8321331e-3 0.31629721
v 0.29773281 -8.1481323e-2 0.32432526
v 0.29773281 -6.8081847e-2 0.32070765
v 0.28590622 -6.8081847e-2 0.32070765
v 0.28590622 -8.1481323e-2 0.32432526
v 0.28590622 -1.8213612e-2 0.33407440
v 0.28590622 -2.9902473e-2 0.32659084
v 0.29773281 -2.9902473e-2 0.32659084
v 0.29773281 -1.8213612e-2 0.33407440
v 0.29181952 -2.7228889e-2 1.7682998e-2
v 0.25574392 -2.5341456e-2 1.7973839e-2
v 0.25574392 -2.4335421e-3 2.1503797e-2
v 0.25574392 2.0474372e-2 2.5033755e-2
v 0.29181952 2.2361805e-2 2.5324596e-2
v 0.31690752 3.6503132e-3 -1.7977813e-2
v 0.31499781 -5.8384554e-3 -1.9439969e-2
v 0.30955941 -1.3882645e-2 -2.0679526e-2
v 0.30142028 -1.9257601e-2 -2.1507771e-2
v 0.29181952 -2.1145034e-2 -2.1798612e-2
v 0.25574392 -1.9257601e-2 -2.1507771e-2
v 0.25574392 2.6558227e-2 -1.4447855e-2
v 0.29181952 2.8445660e-2 -1.4157014e-2
v 0.30142028 2.6558227e-2 -1.4447855e-2
v 0.30955941 2.1183271e-2 -1.5276100e-2
v 0.31499781 1.3139082e-2 -1.6515656e-2
v 0.22220881 2.6558227e-2 -1.4447855e-2
v 0.22220881 -1.9257601e-2 -2.1507771e-2
v 0.22220881 -2.5341456e-2 1.7973839e-2
v 0.22220881 2.0474372e-2 2.5033755e-2
vn 0.70021451 -0.10872899 0.70560446
vn 0.82309273 -0.40612911 0.39696032
vn 0.62996790 -0.69178928 0.35294198
vn 0.26796049 -0.74809655 0.60708214
vn 2.5212141e-17 -0.94968663 0.31320170
vn -0.26796049 -0.74809655 0.60708214
vn -0.62996790 -0.69178928 0.35294198
vn -0.82309273 -0.40612911 0.39696032
vn -0.70021451 -0.10872899 0.70560446
vn -0.82309273 0.26778915 0.50080667
vn -0.62996790 0.55344931 0.54482502
vn -0.26796049 0.53063858 0.80412678
vn 1.1345463e-16 0.81134667 0.58456529
vn 0.26796049 0.53063858 0.80412678
vn 0.62996790 0.55344931 0.54482502
vn 0.82309273 0.26778915 0.50080667
vn -0.30709285 -0.94110890 0.14144971
vn -0.60241833 -0.68040845 0.41729665
vn -0.79063994 -0.39883755 0.46456118
vn -0.79029014 -9.3316685e-2 0.60558524
vn -0.79063994 0.24048535 0.56307661
vn -0.60241833 0.52322318 0.60276833
vn -0.30709285 0.85487083 0.41819832
vn -0.36469630 -0.14180674 0.92026488
vn 0.36469630 -0.14180674 0.92026488
vn 0.55956919 -0.53188220 0.63559709
vn -0.55956919 -0.53188220 0.63559709
vn -0.55956919 0.31586989 0.76623008
vn 0.55956919 0.31586989 0.76623008
vn -0.80857139 -8.9610608e-2 0.58153440
vn 0.80857139 -8.9610608e-2 0.58153440
vn 0.74087261 0.67164380 -1.5418488e-3
vn -0.74087261 0.67164380 -1.5418488e-3
vn -0.86358414 -0.50311620 -3.3113843e-2
vn 0.86358414 -0.50311620 -3.3113843e-2
vn -0.74087261 -0.64002338 -0.20366110
vn 0.74087261 -0.64002338 -0.20366110
vn 0.86358414 0.48974616 0.11987969
vn -0.86358414 0.48974616 0.11987969
vn -0.70792479 -0.69280937 0.13732321
vn 0.70792479 -0.69280937 0.13732321
vn 0.70792479 0.61933168 0.33951548
vn -0.70792479 0.61933168 0.33951548
vn 0.57735027 -0.40690774 0.70787905
vn 0.57735027 0.70787905 0.40690774
vn -0.57735027 0.70787905 0.40690774
vn -0.57735027 -0.40690774 0.70787905
vn -0.57735027 0.17493309 0.79753688
vn -0.57735027 -0.79753688 0.17493309
vn 0.57735027 -0.79753688 0.17493309
vn 0.57735027 0.17493309 0.79753688
vn 1.8251367e-2 -0.99244204 -0.12134942
vn -0.30541233 -0.71213867 0.63212485
vn -0.26817776 -0.14671720 0.95213169
vn -0.30541233 0.48880989 0.81718309
vn -2.6597718e-2 0.98130333 0.19062095
vn 0.89090915 6.9169981e-2 -0.44888350
vn 0.82309273 -0.26778915 -0.50080667
vn 0.62996790 -0.55344931 -0.54482502
vn 0.30373248 -0.83762431 -0.45401773
vn 6.4003048e-2 -0.81180641 -0.58040844
vn -1.8692922e-2 -0.59078358 -0.80661350
vn -1.8692922e-2 0.80620014 -0.59134753
vn 6.4003048e-2 0.94887367 -0.30909927
vn 0.34093617 0.88266129 -0.32352986
vn 0.62996790 0.69178928 -0.35294198
vn 0.82309273 0.40612911 -0.39696032
vn -0.57735027 0.65854352 -0.48268738
vn -0.57735027 -0.48268738 -0.65854352
vn -0.40824829 -0.52783512 0.74479757
vn -0.40824829 0.27913698 0.86914664
g cylinder2_default
usemtl default
s 1
f 1//1 25//25 26//26 4//4 3//3 2//2
f 1//1 57//57 67//67 16//16
f 2//2 58//58 57//57 1//1
f 3//3 59//59 58//58 2//2
f 4//4 26//26 27//27 6//6 5//5
f 4//4 60//60 59//59 3//3
f 5//5 52//52 60//60 4//4
f 6//6 17//17 52//52 5//5
f 6//6 27//27 24//24 9//9 8//8 7//7
f 7//7 18//18 17//17 6//6
f 8//8 19//19 18//18 7//7
f 9//9 20//20 19//19 8//8
f 9//9 24//24 28//28 12//12 11//11 10//10
f 10//10 21//21 20//20 9//9
f 11//11 22//22 21//21 10//10
f 12//12 23//23 22//22 11//11
f 12//12 28//28 29//29 14//14 13//13
f 13//13 56//56 23//23 12//12
f 14//14 65//65 64//64 56//56 13//13
f 15//15 66//66 65//65 14//14
f 16//16 15//15 14//14 29//29 25//25 1//1
f 16//16 67//67 66//66 15//15
f 18//18 53//53 17//17
f 19//19 53//53 18//18
f 20//20 53//53 19//19
f 21//21 55//55 20//20
f 22//22 55//55 21//21
f 23//23 55//55 22//22
f 26//26 25//25 31//31
f 26//26 37//37 36//36 27//27
f 27//27 36//36 39//39 30//30
f 28//28 24//24 30//30
f 28//28 33//33 32//32 29//29
f 29//29 32//32 35//35 31//31
f 30//30 24//24 27//27
f 30//30 34//34 33//33 28//28
f 30//30 39//39 38//38 31//31
f 31//31 25//25 29//29
f 31//31 35//35 34//34 30//30
f 31//31 38//38 37//37 26//26
f 32//32 42//42 35//35
f 33//33 43//43 42//42 32//32
f 34//34 43//43 33//33
f 34//34 49//49 48//48 43//43
f 35//35 50//50 49//49 34//34
f 36//36 40//40 39//39
f 37//37 41//41 40//40 36//36
f 38//38 41//41 37//37
f 38//38 45//45 44//44 41//41
f 39//39 46//46 45//45 38//38
f 40//40 47//47 46//46 39//39
f 41//41 44//44 47//47 40//40
f 42//42 51//51 50//50 35//35
f 43//43 48//48 51//51 42//42
f 45//45 46//46 47//47 44//44
f 49//49 50//50 51//51 48//48
f 52//52 17//17 53//53
f 53//53 20//20 54//54
f 53//53 62//62 61//61 52//52
f 53//53 70//70 69//69 62//62
f 54//54 20//20 55//55
f 54//54 70//70 53//53
f 55//55 23//23 56//56
f 55//55 71//71 54//54
f 56//56 64//64 63//63 55//55
f 58//58 59//59 60//60 61//61 62//62 63//63 64//64 65//65 66//66 67//67 57//57
f 60//60 52//52 61//61
f 62//62 69//69 68//68 63//63
f 63//63 68//68 71//71 55//55
f 69//69 70//70 71//71 68//68
f 70//70 54//54 71//71
