# Exported from Wings 3D 1.4.1
mtllib char2_gun.mtl
o sphere1_cut4
#160 vertices, 138 faces
v 1.5453495e-17 3.0239000e-2 0.24837139
v -7.4144915e-3 3.0239000e-2 0.24837139
v -1.4865298e-2 2.8349062e-2 0.24837139
v -2.2388733e-2 2.2679250e-2 0.24837139
v -2.8094860e-2 1.5119500e-2 0.24837139
v -3.0093741e-2 7.5597500e-3 0.24837139
v -3.0166371e-2 1.5941025e-17 0.24837139
v -3.0093741e-2 -7.5597500e-3 0.24837139
v -2.8094860e-2 -1.5119500e-2 0.24837139
v -2.2388733e-2 -2.2679250e-2 0.24837139
v -1.4865298e-2 -2.8349062e-2 0.24837139
v -7.4144915e-3 -3.0239000e-2 0.24837139
v 1.5453495e-17 -3.0239000e-2 0.24837139
v 7.4144915e-3 -3.0239000e-2 0.24837139
v 1.4865298e-2 -2.8349062e-2 0.24837139
v 2.2388733e-2 -2.2679250e-2 0.24837139
v 2.8094860e-2 -1.5119500e-2 0.24837139
v 3.0093741e-2 -7.5597500e-3 0.24837139
v 3.0166371e-2 1.5941025e-17 0.24837139
v 3.0093741e-2 7.5597500e-3 0.24837139
v 2.8094860e-2 1.5119500e-2 0.24837139
v 2.2388733e-2 2.2679250e-2 0.24837139
v 1.4865298e-2 2.8349062e-2 0.24837139
v 7.4144915e-3 3.0239000e-2 0.24837139
v 1.5453495e-17 3.0239000e-2 0.30837139
v -7.4144915e-3 3.0239000e-2 0.30837139
v -1.4865298e-2 2.8349062e-2 0.30837139
v -2.2388733e-2 2.2679250e-2 0.30837139
v -2.8094860e-2 1.5119500e-2 0.30837139
v -3.0093741e-2 7.5597500e-3 0.30837139
v -3.0166371e-2 1.5941025e-17 0.30837139
v -3.0093741e-2 -7.5597500e-3 0.30837139
v -2.8094860e-2 -1.5119500e-2 0.30837139
v -2.2388733e-2 -2.2679250e-2 0.30837139
v -1.4865298e-2 -2.8349062e-2 0.30837139
v -7.4144915e-3 -3.0239000e-2 0.30837139
v 1.5453495e-17 -3.0239000e-2 0.30837139
v 7.4144915e-3 -3.0239000e-2 0.30837139
v 1.4865298e-2 -2.8349062e-2 0.30837139
v 2.2388733e-2 -2.2679250e-2 0.30837139
v 2.8094860e-2 -1.5119500e-2 0.30837139
v 3.0093741e-2 -7.5597500e-3 0.30837139
v 3.0166371e-2 1.5941025e-17 0.30837139
v 3.0093741e-2 7.5597500e-3 0.30837139
v 2.8094860e-2 1.5119500e-2 0.30837139
v 2.2388733e-2 2.2679250e-2 0.30837139
v 1.4865298e-2 2.8349062e-2 0.30837139
v 7.4144915e-3 3.0239000e-2 0.30837139
v 1.3179706e-17 4.5056110e-2 0.31189947
v -1.1047592e-2 4.5056110e-2 0.31189947
v -2.2149293e-2 4.2240103e-2 0.31189947
v -3.3359212e-2 3.3792082e-2 0.31189947
v -4.1861342e-2 2.2528055e-2 0.31189947
v -4.4839675e-2 1.1264027e-2 0.31189947
v -4.4947892e-2 1.4572346e-17 0.31189947
v -4.4839675e-2 -1.1264027e-2 0.31189947
v -4.1861342e-2 -2.2528055e-2 0.31189947
v -3.3359212e-2 -3.3792082e-2 0.31189947
v -2.2149293e-2 -4.2240103e-2 0.31189947
v -1.1047592e-2 -4.5056110e-2 0.31189947
v 1.3179706e-17 -4.5056110e-2 0.31189947
v 1.1047592e-2 -4.5056110e-2 0.31189947
v 2.2149293e-2 -4.2240103e-2 0.31189947
v 3.3359212e-2 -3.3792082e-2 0.31189947
v 4.1861342e-2 -2.2528055e-2 0.31189947
v 4.4839675e-2 -1.1264027e-2 0.31189947
v 4.4947892e-2 1.4572346e-17 0.31189947
v 4.4839675e-2 1.1264027e-2 0.31189947
v 4.1861342e-2 2.2528055e-2 0.31189947
v 3.3359212e-2 3.3792082e-2 0.31189947
v 2.2149293e-2 4.2240103e-2 0.31189947
v 1.1047592e-2 4.5056110e-2 0.31189947
v 1.3179706e-17 4.5056110e-2 0.37498864
v -1.1047592e-2 4.5056110e-2 0.37498864
v -2.2149293e-2 4.2240103e-2 0.37498864
v -3.3359212e-2 3.3792082e-2 0.37498864
v -4.1861342e-2 2.2528055e-2 0.37498864
v -4.4839675e-2 1.1264027e-2 0.37498864
v -4.4947892e-2 1.4572346e-17 0.37498864
v -4.4839675e-2 -1.1264027e-2 0.37498864
v -4.1861342e-2 -2.2528055e-2 0.37498864
v -3.3359212e-2 -3.3792082e-2 0.37498864
v -2.2149293e-2 -4.2240103e-2 0.37498864
v -1.1047592e-2 -4.5056110e-2 0.37498864
v 1.3179706e-17 -4.5056110e-2 0.37498864
v 1.1047592e-2 -4.5056110e-2 0.37498864
v 2.2149293e-2 -4.2240103e-2 0.37498864
v 3.3359212e-2 -3.3792082e-2 0.37498864
v 4.1861342e-2 -2.2528055e-2 0.37498864
v 4.4839675e-2 -1.1264027e-2 0.37498864
v 4.4947892e-2 1.4572346e-17 0.37498864
v 4.4839675e-2 1.1264027e-2 0.37498864
v 4.1861342e-2 2.2528055e-2 0.37498864
v 3.3359212e-2 3.3792082e-2 0.37498864
v 2.2149293e-2 4.2240103e-2 0.37498864
v 1.1047592e-2 4.5056110e-2 0.37498864
v 1.4549101e-17 3.6315225e-2 0.37939835
v -8.9043594e-3 3.6315225e-2 0.37939835
v -1.7852331e-2 3.4045523e-2 0.37939835
v -2.6887525e-2 2.7236418e-2 0.37939835
v -3.3740241e-2 1.8157612e-2 0.37939835
v -3.6140778e-2 9.0788061e-3 0.37939835
v -3.6228001e-2 1.5873496e-17 0.37939835
v -3.6140778e-2 -9.0788061e-3 0.37939835
v -3.3740241e-2 -1.8157612e-2 0.37939835
v -2.6887525e-2 -2.7236418e-2 0.37939835
v -1.7852331e-2 -3.4045523e-2 0.37939835
v -8.9043594e-3 -3.6315225e-2 0.37939835
v 1.4549101e-17 -3.6315225e-2 0.37939835
v 8.9043594e-3 -3.6315225e-2 0.37939835
v 1.7852331e-2 -3.4045523e-2 0.37939835
v 2.6887525e-2 -2.7236418e-2 0.37939835
v 3.3740241e-2 -1.8157612e-2 0.37939835
v 3.6140778e-2 -9.0788061e-3 0.37939835
v 3.6228001e-2 1.5873496e-17 0.37939835
v 3.6140778e-2 9.0788061e-3 0.37939835
v 3.3740241e-2 1.8157612e-2 0.37939835
v 2.6887525e-2 2.7236418e-2 0.37939835
v 1.7852331e-2 3.4045523e-2 0.37939835
v 8.9043594e-3 3.6315225e-2 0.37939835
v 1.4549101e-17 3.6315225e-2 0.33424299
v -8.9043594e-3 3.6315225e-2 0.33424299
v -1.7852331e-2 3.4045523e-2 0.33424299
v -2.6887525e-2 2.7236418e-2 0.33424299
v -3.3740241e-2 1.8157612e-2 0.33424299
v -3.6140778e-2 9.0788061e-3 0.33424299
v -3.6228001e-2 1.5873496e-17 0.33424299
v -3.6140778e-2 -9.0788061e-3 0.33424299
v -3.3740241e-2 -1.8157612e-2 0.33424299
v -2.6887525e-2 -2.7236418e-2 0.33424299
v -1.7852331e-2 -3.4045523e-2 0.33424299
v -8.9043594e-3 -3.6315225e-2 0.33424299
v 1.4549101e-17 -3.6315225e-2 0.33424299
v 8.9043594e-3 -3.6315225e-2 0.33424299
v 1.7852331e-2 -3.4045523e-2 0.33424299
v 2.6887525e-2 -2.7236418e-2 0.33424299
v 3.3740241e-2 -1.8157612e-2 0.33424299
v 3.6140778e-2 -9.0788061e-3 0.33424299
v 3.6228001e-2 1.5873496e-17 0.33424299
v 3.6140778e-2 9.0788061e-3 0.33424299
v 3.3740241e-2 1.8157612e-2 0.33424299
v 2.6887525e-2 2.7236418e-2 0.33424299
v 1.7852331e-2 3.4045523e-2 0.33424299
v 8.9043594e-3 3.6315225e-2 0.33424299
v 4.3187065e-2 4.1210182e-2 0.37498864
v 5.1689195e-2 2.9946155e-2 0.37498864
v 5.1689195e-2 2.9946155e-2 0.31189947
v 4.3187065e-2 4.1210182e-2 0.31189947
v 5.1689195e-2 -2.9946155e-2 0.37498864
v 4.3187065e-2 -4.1210182e-2 0.37498864
v 4.3187065e-2 -4.1210182e-2 0.31189947
v 5.1689195e-2 -2.9946155e-2 0.31189947
v -4.3187065e-2 -4.1210182e-2 0.37498864
v -5.1689195e-2 -2.9946155e-2 0.37498864
v -5.1689195e-2 -2.9946155e-2 0.31189947
v -4.3187065e-2 -4.1210182e-2 0.31189947
v -5.1689195e-2 2.9946155e-2 0.37498864
v -4.3187065e-2 4.1210182e-2 0.37498864
v -4.3187065e-2 4.1210182e-2 0.31189947
v -5.1689195e-2 2.9946155e-2 0.31189947
vn 8.2556743e-19 0.89442719 -0.44721360
vn -0.11063730 0.88615637 -0.44998476
vn -0.38516143 0.80325325 -0.45435106
vn -0.63097942 0.63145561 -0.45069811
vn -0.80130842 0.38958137 -0.45401671
vn -0.88501915 0.11935365 -0.44999535
vn -0.89441894 0.0000000e+0 -0.44723011
vn -0.88501915 -0.11935365 -0.44999535
vn -0.80130842 -0.38958137 -0.45401671
vn -0.63097942 -0.63145561 -0.45069811
vn -0.38516143 -0.80325325 -0.45435106
vn -0.11063730 -0.88615637 -0.44998476
vn 8.2556743e-19 -0.89442719 -0.44721360
vn 0.11063730 -0.88615637 -0.44998476
vn 0.38516143 -0.80325325 -0.45435106
vn 0.63097942 -0.63145561 -0.45069811
vn 0.80130842 -0.38958137 -0.45401671
vn 0.88501915 -0.11935365 -0.44999535
vn 0.89441894 0.0000000e+0 -0.44723011
vn 0.88501915 0.11935365 -0.44999535
vn 0.80130842 0.38958137 -0.45401671
vn 0.63097942 0.63145561 -0.45069811
vn 0.38516143 0.80325325 -0.45435106
vn 0.11063730 0.88615637 -0.44998476
vn 0.0000000e+0 0.78473969 -0.61982548
vn -9.6556681e-2 0.77540046 -0.62404402
vn -0.33540541 0.69994042 -0.63054470
vn -0.55052351 0.55091628 -0.62722812
vn -0.69853954 0.33937798 -0.62997229
vn -0.77460574 0.10421802 -0.62379849
vn -0.78489709 1.3813452e-19 -0.61962614
vn -0.77460574 -0.10421802 -0.62379849
vn -0.69853954 -0.33937798 -0.62997229
vn -0.55052351 -0.55091628 -0.62722812
vn -0.33540541 -0.69994042 -0.63054470
vn -9.6556681e-2 -0.77540046 -0.62404402
vn 0.0000000e+0 -0.78473969 -0.61982548
vn 9.6556681e-2 -0.77540046 -0.62404402
vn 0.33540541 -0.69994042 -0.63054470
vn 0.55052351 -0.55091628 -0.62722812
vn 0.69853954 -0.33937798 -0.62997229
vn 0.77460574 -0.10421802 -0.62379849
vn 0.78489709 1.3813452e-19 -0.61962614
vn 0.77460574 0.10421802 -0.62379849
vn 0.69853954 0.33937798 -0.62997229
vn 0.55052351 0.55091628 -0.62722812
vn 0.33540541 0.69994042 -0.63054470
vn 9.6556681e-2 0.77540046 -0.62404402
vn 0.0000000e+0 0.78473969 -0.61982548
vn -9.6556681e-2 0.77540046 -0.62404402
vn -0.33540541 0.69994042 -0.63054470
vn -8.8127830e-2 0.54105974 -0.83635390
vn -0.55189564 -9.8456954e-2 -0.82808057
vn -0.77460574 0.10421802 -0.62379849
vn -0.78489709 0.0000000e+0 -0.61962614
vn -0.77460574 -0.10421802 -0.62379849
vn -0.55189564 9.8456954e-2 -0.82808057
vn -8.8127830e-2 -0.54105974 -0.83635390
vn -0.33540541 -0.69994042 -0.63054470
vn -9.6556681e-2 -0.77540046 -0.62404402
vn 0.0000000e+0 -0.78473969 -0.61982548
vn 9.6556681e-2 -0.77540046 -0.62404402
vn 0.33540541 -0.69994042 -0.63054470
vn 8.8127830e-2 -0.54105974 -0.83635390
vn 0.55189564 9.8456954e-2 -0.82808057
vn 0.77460574 -0.10421802 -0.62379849
vn 0.78489709 0.0000000e+0 -0.61962614
vn 0.77460574 0.10421802 -0.62379849
vn 0.55189564 -9.8456954e-2 -0.82808057
vn 8.8127830e-2 0.54105974 -0.83635390
vn 0.33540541 0.69994042 -0.63054470
vn 9.6556681e-2 0.77540046 -0.62404402
vn -1.4474006e-32 0.85159228 0.52420472
vn -0.10470864 0.84174869 0.52961801
vn -0.36420683 0.76024987 0.53793449
vn -0.16830024 0.61002216 0.77430485
vn -0.64146294 -4.5814078e-2 0.76578480
vn -0.84097818 0.11304170 0.52912879
vn -0.85183991 2.5456068e-19 0.52380222
vn -0.84097818 -0.11304170 0.52912879
vn -0.64146294 4.5814078e-2 0.76578480
vn -0.16830024 -0.61002216 0.77430485
vn -0.36420683 -0.76024987 0.53793449
vn -0.10470864 -0.84174869 0.52961801
vn 0.0000000e+0 -0.85159228 0.52420472
vn 0.10470864 -0.84174869 0.52961801
vn 0.36420683 -0.76024987 0.53793449
vn 0.16830024 -0.61002216 0.77430485
vn 0.64146294 4.5814078e-2 0.76578480
vn 0.84097818 -0.11304170 0.52912879
vn 0.85183991 0.0000000e+0 0.52380222
vn 0.84097818 0.11304170 0.52912879
vn 0.64146294 -4.5814078e-2 0.76578480
vn 0.16830024 0.61002216 0.77430485
vn 0.36420683 0.76024987 0.53793449
vn 0.10470864 0.84174869 0.52961801
vn 9.4054489e-32 -0.52420472 0.85159228
vn 6.5495187e-2 -0.51963650 0.85187340
vn 0.22646747 -0.47119218 0.85246139
vn 0.37297714 -0.37331418 0.84942603
vn 0.46986943 -0.22902488 0.85250826
vn 0.51846236 -7.0519885e-2 0.85218761
vn 0.52376714 -8.2798596e-19 0.85186148
vn 0.51846236 7.0519885e-2 0.85218761
vn 0.46986943 0.22902488 0.85250826
vn 0.37297714 0.37331418 0.84942603
vn 0.22646747 0.47119218 0.85246139
vn 6.5495187e-2 0.51963650 0.85187340
vn 0.0000000e+0 0.52420472 0.85159228
vn -6.5495187e-2 0.51963650 0.85187340
vn -0.22646747 0.47119218 0.85246139
vn -0.37297714 0.37331418 0.84942603
vn -0.46986943 0.22902488 0.85250826
vn -0.51846236 7.0519885e-2 0.85218761
vn -0.52376714 -8.2798596e-19 0.85186148
vn -0.51846236 -7.0519885e-2 0.85218761
vn -0.46986943 -0.22902488 0.85250826
vn -0.37297714 -0.37331418 0.84942603
vn -0.22646747 -0.47119218 0.85246139
vn -6.5495187e-2 -0.51963650 0.85187340
vn -1.3180266e-16 -0.89442719 0.44721360
vn 0.11063730 -0.88615637 0.44998476
vn 0.38516143 -0.80325325 0.45435106
vn 0.63097942 -0.63145561 0.45069811
vn 0.80130842 -0.38958137 0.45401671
vn 0.88501915 -0.11935365 0.44999535
vn 0.89441894 -1.5516411e-18 0.44723011
vn 0.88501915 0.11935365 0.44999535
vn 0.80130842 0.38958137 0.45401671
vn 0.63097942 0.63145561 0.45069811
vn 0.38516143 0.80325325 0.45435106
vn 0.11063730 0.88615637 0.44998476
vn -1.3180266e-16 0.89442719 0.44721360
vn -0.11063730 0.88615637 0.44998476
vn -0.38516143 0.80325325 0.45435106
vn -0.63097942 0.63145561 0.45069811
vn -0.80130842 0.38958137 0.45401671
vn -0.88501915 0.11935365 0.44999535
vn -0.89441894 -7.7582056e-19 0.44723011
vn -0.88501915 -0.11935365 0.44999535
vn -0.80130842 -0.38958137 0.45401671
vn -0.63097942 -0.63145561 0.45069811
vn -0.38516143 -0.80325325 0.45435106
vn -0.11063730 -0.88615637 0.44998476
vn 0.11299027 0.80864075 0.57735027
vn 0.80864075 -0.11299027 0.57735027
vn 0.80864075 -0.11299027 -0.57735027
vn 0.11299027 0.80864075 -0.57735027
vn 0.80864075 0.11299027 0.57735027
vn 0.11299027 -0.80864075 0.57735027
vn 0.11299027 -0.80864075 -0.57735027
vn 0.80864075 0.11299027 -0.57735027
vn -0.11299027 -0.80864075 0.57735027
vn -0.80864075 0.11299027 0.57735027
vn -0.80864075 0.11299027 -0.57735027
vn -0.11299027 -0.80864075 -0.57735027
vn -0.80864075 -0.11299027 0.57735027
vn -0.11299027 0.80864075 0.57735027
vn -0.11299027 0.80864075 -0.57735027
vn -0.80864075 -0.11299027 -0.57735027
g sphere1_cut4_default
usemtl default
s 1
f 1//1 24//24 23//23 22//22 21//21 20//20 19//19 18//18 17//17 16//16 15//15 14//14 13//13 12//12 11//11 10//10 9//9 8//8 7//7 6//6 5//5 4//4 3//3 2//2
f 1//1 25//25 48//48 24//24
f 2//2 26//26 25//25 1//1
f 3//3 27//27 26//26 2//2
f 4//4 28//28 27//27 3//3
f 5//5 29//29 28//28 4//4
f 6//6 30//30 29//29 5//5
f 7//7 31//31 30//30 6//6
f 8//8 32//32 31//31 7//7
f 9//9 33//33 32//32 8//8
f 10//10 34//34 33//33 9//9
f 11//11 35//35 34//34 10//10
f 12//12 36//36 35//35 11//11
f 13//13 37//37 36//36 12//12
f 14//14 38//38 37//37 13//13
f 15//15 39//39 38//38 14//14
f 16//16 40//40 39//39 15//15
f 17//17 41//41 40//40 16//16
f 18//18 42//42 41//41 17//17
f 19//19 43//43 42//42 18//18
f 20//20 44//44 43//43 19//19
f 21//21 45//45 44//44 20//20
f 22//22 46//46 45//45 21//21
f 23//23 47//47 46//46 22//22
f 24//24 48//48 47//47 23//23
f 25//25 49//49 72//72 48//48
f 26//26 50//50 49//49 25//25
f 27//27 51//51 50//50 26//26
f 28//28 52//52 51//51 27//27
f 29//29 53//53 52//52 28//28
f 30//30 54//54 53//53 29//29
f 31//31 55//55 54//54 30//30
f 32//32 56//56 55//55 31//31
f 33//33 57//57 56//56 32//32
f 34//34 58//58 57//57 33//33
f 35//35 59//59 58//58 34//34
f 36//36 60//60 59//59 35//35
f 37//37 61//61 60//60 36//36
f 38//38 62//62 61//61 37//37
f 39//39 63//63 62//62 38//38
f 40//40 64//64 63//63 39//39
f 41//41 65//65 64//64 40//40
f 42//42 66//66 65//65 41//41
f 43//43 67//67 66//66 42//42
f 44//44 68//68 67//67 43//43
f 45//45 69//69 68//68 44//44
f 46//46 70//70 69//69 45//45
f 47//47 71//71 70//70 46//46
f 48//48 72//72 71//71 47//47
f 49//49 73//73 96//96 72//72
f 50//50 74//74 73//73 49//49
f 51//51 75//75 74//74 50//50
f 52//52 76//76 75//75 51//51
f 52//52 159//159 158//158 76//76
f 53//53 160//160 159//159 52//52
f 54//54 78//78 77//77 53//53
f 55//55 79//79 78//78 54//54
f 56//56 80//80 79//79 55//55
f 57//57 81//81 80//80 56//56
f 57//57 155//155 154//154 81//81
f 58//58 156//156 155//155 57//57
f 59//59 83//83 82//82 58//58
f 60//60 84//84 83//83 59//59
f 61//61 85//85 84//84 60//60
f 62//62 86//86 85//85 61//61
f 63//63 87//87 86//86 62//62
f 64//64 88//88 87//87 63//63
f 64//64 151//151 150//150 88//88
f 65//65 152//152 151//151 64//64
f 66//66 90//90 89//89 65//65
f 67//67 91//91 90//90 66//66
f 68//68 92//92 91//91 67//67
f 69//69 93//93 92//92 68//68
f 69//69 147//147 146//146 93//93
f 70//70 148//148 147//147 69//69
f 71//71 95//95 94//94 70//70
f 72//72 96//96 95//95 71//71
f 73//73 97//97 120//120 96//96
f 74//74 98//98 97//97 73//73
f 75//75 99//99 98//98 74//74
f 76//76 100//100 99//99 75//75
f 76//76 158//158 157//157 77//77
f 77//77 101//101 100//100 76//76
f 77//77 157//157 160//160 53//53
f 78//78 102//102 101//101 77//77
f 79//79 103//103 102//102 78//78
f 80//80 104//104 103//103 79//79
f 81//81 105//105 104//104 80//80
f 81//81 154//154 153//153 82//82
f 82//82 106//106 105//105 81//81
f 82//82 153//153 156//156 58//58
f 83//83 107//107 106//106 82//82
f 84//84 108//108 107//107 83//83
f 85//85 109//109 108//108 84//84
f 86//86 110//110 109//109 85//85
f 87//87 111//111 110//110 86//86
f 88//88 112//112 111//111 87//87
f 88//88 150//150 149//149 89//89
f 89//89 113//113 112//112 88//88
f 89//89 149//149 152//152 65//65
f 90//90 114//114 113//113 89//89
f 91//91 115//115 114//114 90//90
f 92//92 116//116 115//115 91//91
f 93//93 117//117 116//116 92//92
f 93//93 146//146 145//145 94//94
f 94//94 118//118 117//117 93//93
f 94//94 145//145 148//148 70//70
f 95//95 119//119 118//118 94//94
f 96//96 120//120 119//119 95//95
f 97//97 121//121 144//144 120//120
f 98//98 122//122 121//121 97//97
f 99//99 123//123 122//122 98//98
f 100//100 124//124 123//123 99//99
f 101//101 125//125 124//124 100//100
f 102//102 126//126 125//125 101//101
f 103//103 127//127 126//126 102//102
f 104//104 128//128 127//127 103//103
f 105//105 129//129 128//128 104//104
f 106//106 130//130 129//129 105//105
f 107//107 131//131 130//130 106//106
f 108//108 132//132 131//131 107//107
f 109//109 133//133 132//132 108//108
f 110//110 134//134 133//133 109//109
f 111//111 135//135 134//134 110//110
f 112//112 136//136 135//135 111//111
f 113//113 137//137 136//136 112//112
f 114//114 138//138 137//137 113//113
f 115//115 139//139 138//138 114//114
f 116//116 140//140 139//139 115//115
f 117//117 141//141 140//140 116//116
f 118//118 142//142 141//141 117//117
f 119//119 143//143 142//142 118//118
f 120//120 144//144 143//143 119//119
f 122//122 123//123 124//124 125//125 126//126 127//127 128//128 129//129 130//130 131//131 132//132 133//133 134//134 135//135 136//136 137//137 138//138 139//139 140//140 141//141 142//142 143//143 144//144 121//121
f 146//146 147//147 148//148 145//145
f 150//150 151//151 152//152 149//149
f 154//154 155//155 156//156 153//153
f 158//158 159//159 160//160 157//157
