<?xml version="1.0" encoding="utf-8"?>
<!-- Generator: Adobe Illustrator 15.0.0, SVG Export Plug-In . SVG Version: 6.00 Build 0)  -->
<!DOCTYPE svg PUBLIC "-//W3C//DTD SVG 1.1//EN" "http://www.w3.org/Graphics/SVG/1.1/DTD/svg11.dtd">
<svg version="1.1" id="Layer_1" xmlns="http://www.w3.org/2000/svg" xmlns:xlink="http://www.w3.org/1999/xlink" x="0px" y="0px"
	 width="100px" height="160px" viewBox="0 0 100 160" enable-background="new 0 0 100 160" xml:space="preserve">
<g>
	<path fill-rule="evenodd" clip-rule="evenodd" fill="#186876" d="M12.125,150.033c-0.083-0.091-0.153-0.198-0.251-0.268
		c-3.579-2.559-5.583-6.117-6.559-10.326c-0.757-3.266-0.824-6.575-0.593-9.9c0.037-0.53,0.107-1.062,0.116-1.593
		c0.008-0.449,0.215-0.754,0.593-0.928c0.868-0.4,1.718-0.896,2.632-1.129c1.801-0.461,3.639-0.784,5.466-1.137
		c0.579-0.111,0.676-0.013,0.63,0.562c-0.341,4.306-0.194,8.618-0.203,12.928c-0.005,2.447,0.073,4.895,0.119,7.342
		c0.004,0.211,0.077,0.423,0.065,0.631c-0.009,0.166-0.055,0.396-0.167,0.47c-0.096,0.062-0.336-0.022-0.467-0.109
		c-0.354-0.235-0.673-0.524-1.026-0.76c-0.588-0.392-0.708-0.401-1.186,0.105c-0.346,0.368-0.619,0.81-0.891,1.239
		c-0.169,0.268-0.077,0.49,0.211,0.658c0.984,0.574,1.98,1.121,3.112,1.346c0.404,0.08,0.587,0.279,0.559,0.689
		c-0.018,0.266-0.019,0.532-0.021,0.799c-0.002,0.354-0.15,0.453-0.464,0.276c-0.387-0.218-0.771-0.44-1.16-0.653
		c-0.169-0.094-0.349-0.168-0.523-0.25L12.125,150.033z"/>
	<path fill-rule="evenodd" clip-rule="evenodd" fill="#186876" d="M18.331,150.549c-0.132,0.051-0.262,0.104-0.396,0.148
		c-0.163,0.055-0.328,0.1-0.492,0.148c-0.031-0.184-0.105-0.373-0.085-0.553c0.108-0.928,0.134-0.879,1.048-1.203
		c0.863-0.307,1.718-0.669,2.514-1.117c0.648-0.364,0.694-0.813,0.176-1.348c-0.421-0.437-0.947-0.781-1.459-1.116
		c-0.322-0.21-0.581-0.093-0.746,0.292c-0.1,0.232-0.283,0.451-0.48,0.613c-0.132,0.107-0.428,0.194-0.522,0.123
		c-0.133-0.102-0.203-0.359-0.202-0.549c0.003-0.654,0.07-1.309,0.076-1.963c0.01-1.172-0.021-2.344-0.009-3.515
		c0.029-2.979,0.105-5.958,0.098-8.938c-0.005-1.964-0.134-3.928-0.187-5.893c-0.026-0.961-0.004-0.965,0.936-0.828
		c1.9,0.275,3.785,0.629,5.583,1.32c0.642,0.246,1.257,0.577,1.846,0.934c0.208,0.127,0.408,0.434,0.43,0.674
		c0.38,4.172,0.438,8.329-0.669,12.422c-0.429,1.583-1.02,3.101-1.83,4.528c-0.104,0.184-0.173,0.387-0.259,0.582
		C22.32,147.477,20.536,149.229,18.331,150.549z"/>
	<path fill-rule="evenodd" clip-rule="evenodd" fill="#186876" d="M15.646,119.171c-0.191,1.637-0.46,3.271-0.558,4.914
		c-0.166,2.816-0.283,5.638-0.314,8.458c-0.043,3.867,0.011,7.736,0.033,11.605c0.001,0.252,0.088,0.503,0.135,0.755
		c0.195-0.216,0.501-0.403,0.563-0.652c0.193-0.786,0.389-1.591,0.414-2.394c0.07-2.252,0.055-4.508,0.077-6.762
		c0.001-0.108,0.034-0.217,0.052-0.324c0.011,0.104,0.031,0.208,0.031,0.313c-0.004,2.521-0.038,5.042,0.004,7.563
		c0.011,0.654,0.25,1.307,0.41,1.955c0.027,0.11,0.184,0.188,0.281,0.282c0.046-0.126,0.128-0.249,0.134-0.376
		c0.058-1.455,0.143-2.909,0.145-4.363c0.005-3.603,0.025-7.206-0.063-10.807c-0.086-3.53-0.229-7.062-0.851-10.552
		c0.153,0.559,0.381,1.109,0.443,1.678c0.188,1.706,0.334,3.418,0.458,5.129c0.356,4.959,0.175,9.927,0.217,14.89
		c0.016,1.822-0.137,3.646-0.18,5.469c-0.009,0.381,0.102,0.771,0.215,1.141c0.032,0.104,0.282,0.226,0.408,0.204
		c0.624-0.105,1.212-0.316,1.56-0.9c0.167-0.279,0.376-0.346,0.599-0.131c0.322,0.312,0.603,0.666,0.901,1.003
		c-0.304,0.224-0.579,0.52-0.918,0.657c-0.77,0.312-1.557,0.608-2.364,0.786c-0.461,0.101-0.591,0.329-0.621,0.703
		c-0.059,0.742-0.118,1.484-0.134,2.227c-0.022,1.029-0.005,2.059-0.005,3.088c-0.839-0.104-0.965,0.002-0.966,0.828
		c0,0.266-0.014,0.532,0.017,0.794c0.015,0.12,0.141,0.335,0.184,0.327c0.27-0.049,0.557-0.106,0.782-0.25
		c0.106-0.068,0.129-0.334,0.118-0.506c-0.024-0.402-0.092-0.803-0.143-1.203c0.125,0.495,0.271,0.986,0.357,1.488
		c0.021,0.12-0.126,0.328-0.252,0.404c-0.657,0.398-1.367,0.445-2.103,0.252c-0.305-0.08-0.395-0.248-0.313-0.551
		c0.436-1.625,0.468-3.291,0.467-4.957c0-0.725-0.073-1.449-0.105-2.175c-0.014-0.322-0.181-0.483-0.492-0.518
		c-1.066-0.116-1.992-0.606-2.921-1.095c-0.338-0.177-0.378-0.391-0.154-0.676c0.121-0.152,0.257-0.292,0.383-0.441
		c0.232-0.275,0.461-0.244,0.737-0.042c0.442,0.323,0.881,0.667,1.366,0.911c0.58,0.293,0.843,0.124,0.973-0.518
		c0.039-0.189,0.073-0.387,0.069-0.579c-0.013-0.649-0.053-1.298-0.067-1.946c-0.034-1.63-0.078-3.26-0.084-4.891
		c-0.015-3.852-0.086-7.704,0.012-11.553c0.065-2.561,0.205-5.134,0.745-7.656C15.401,119.835,15.539,119.506,15.646,119.171z
		 M15.595,148.954c-0.528-0.011-0.584,0.046-0.565,0.504c0.018,0.425,0.013,0.85,0.016,1.274c0.006,0.846,0.111,1.706-0.018,2.53
		c-0.09,0.572,0.165,0.563,0.511,0.575c0.244,0.008,0.499-0.018,0.73-0.088c0.114-0.035,0.258-0.203,0.265-0.318
		c0.035-0.633,0.105-1.279,0.017-1.899c-0.068-0.478,0.265-1.046-0.256-1.442c0.039-0.027,0.075-0.067,0.118-0.078
		c0.403-0.099,0.178-0.441,0.229-0.664c0.014-0.059-0.262-0.218-0.424-0.275C16.021,149.002,15.804,148.99,15.595,148.954z
		 M15.897,148.468c0.563-0.052,1.146-0.03,1.685-0.173c0.815-0.216,1.603-0.535,2.395-0.833c0.341-0.129,0.332-0.355,0.105-0.62
		c-0.341-0.4-0.416-0.396-0.836-0.033c-0.909,0.785-1.915,1.102-3.094,0.628c-0.181-0.073-0.451-0.043-0.636,0.038
		c-0.673,0.297-1.354,0.32-2.014,0.043c-0.451-0.189-0.846-0.509-1.284-0.734c-0.136-0.069-0.382-0.09-0.492-0.013
		c-0.392,0.277-0.369,0.515,0.063,0.741C13.072,148.189,14.448,148.467,15.897,148.468z M16.792,146.082
		c0.061-0.932-0.032-1.026-0.968-0.982c-0.194,0.01-0.386,0.056-0.579,0.084c-0.333,0.05-0.427,0.23-0.38,0.563
		c0.057,0.4,0.049,0.81,0.078,1.214c0.009,0.133,0.042,0.262,0.064,0.393c0.13-0.043,0.289-0.053,0.383-0.137
		c0.354-0.311,0.697-0.277,1.057-0.028c0.029,0.02,0.062,0.04,0.095,0.046c0.115,0.021,0.231,0.035,0.347,0.052
		c-0.001-0.103,0.004-0.206-0.005-0.308C16.856,146.68,16.823,146.381,16.792,146.082z M15.636,155.816c0,0-0.001,0-0.001,0
		c0-0.213,0.053-0.445-0.017-0.633c-0.058-0.156-0.246-0.326-0.404-0.359c-0.109-0.023-0.345,0.148-0.387,0.279
		c-0.119,0.368-0.164,0.761-0.247,1.143c-0.056,0.256,0.03,0.398,0.288,0.47c0.61,0.171,0.761,0.063,0.768-0.58
		C15.637,156.029,15.636,155.923,15.636,155.816z"/>
	<path fill-rule="evenodd" clip-rule="evenodd" fill="#186876" d="M12.116,150.025c0.487,0.318,0.973,0.639,1.463,0.953
		c0.164,0.105,0.339,0.193,0.503,0.299c0.036,0.023,0.044,0.087,0.066,0.132c-0.047,0.013-0.103,0.047-0.14,0.032
		c-0.165-0.064-0.328-0.136-0.484-0.219c-3.94-2.096-6.542-5.323-7.999-9.506c-1.143-3.28-1.473-6.68-1.392-10.13
		c0.026-1.117,0.122-2.232,0.18-3.35c0.015-0.283,0.079-0.59-0.008-0.843c-0.066-0.192-0.335-0.313-0.513-0.468
		c-0.067,0.104-0.183,0.202-0.193,0.311c-0.472,4.712-0.519,9.4,0.871,13.993c1.522,5.029,4.56,8.81,9.299,11.17
		c0.155,0.076,0.272,0.227,0.407,0.344c-0.18-0.046-0.375-0.061-0.537-0.143c-4.749-2.391-7.816-6.197-9.398-11.234
		c-0.571-1.814-0.952-3.673-1.08-5.574c-0.095-1.413-0.228-2.83-0.205-4.243c0.026-1.626,0.192-3.251,0.333-4.873
		c0.018-0.205,0.212-0.444,0.392-0.578c1.075-0.797,2.337-1.184,3.601-1.545c2.119-0.605,4.285-0.974,6.475-1.194
		c0.149-0.015,0.31,0.097,0.465,0.15c-0.144,0.099-0.277,0.257-0.435,0.288c-1.951,0.373-3.927,0.645-5.853,1.119
		c-1.227,0.303-2.384,0.891-3.563,1.375c-0.135,0.056-0.207,0.268-0.308,0.406c0.221,0.047,0.516,0.21,0.652,0.123
		c1.761-1.129,3.751-1.587,5.754-1.997c1.024-0.21,2.065-0.343,3.102-0.493c0.147-0.021,0.307,0.051,0.461,0.08
		c-0.14,0.053-0.277,0.132-0.422,0.152c-2.059,0.291-4.115,0.611-6.083,1.303c-0.832,0.292-1.627,0.699-2.407,1.117
		c-0.226,0.121-0.46,0.444-0.484,0.694c-0.446,4.679-0.456,9.329,1.08,13.855c1.114,3.283,2.973,6.037,5.771,8.123
		c0.196,0.146,0.423,0.252,0.636,0.377L12.116,150.025z"/>
	<path fill-rule="evenodd" clip-rule="evenodd" fill="#186876" d="M18.331,150.549c2.205-1.32,3.989-3.072,5.371-5.236
		c0.508-0.973,1.097-1.911,1.509-2.922c1.07-2.627,1.553-5.396,1.596-8.218c0.033-2.145-0.127-4.292-0.189-6.438
		c-0.01-0.366-0.198-0.585-0.477-0.774c-1.061-0.72-2.253-1.143-3.481-1.432c-1.45-0.34-2.923-0.582-4.384-0.877
		c-0.192-0.039-0.372-0.139-0.558-0.211c0.198-0.016,0.401-0.067,0.594-0.041c2.219,0.311,4.422,0.702,6.514,1.545
		c0.524,0.211,1.015,0.506,1.52,0.764c0.095,0.048,0.2,0.162,0.275,0.145c0.211-0.051,0.409-0.154,0.611-0.238
		c-0.107-0.137-0.186-0.34-0.325-0.398c-1.012-0.427-2.007-0.938-3.063-1.205c-1.769-0.449-3.578-0.737-5.371-1.092
		c-0.192-0.037-0.393-0.041-0.575-0.104c-0.11-0.039-0.19-0.16-0.284-0.245c0.113-0.062,0.231-0.185,0.338-0.175
		c0.511,0.047,1.026,0.093,1.526,0.203c1.867,0.416,3.743,0.801,5.583,1.313c0.84,0.232,1.61,0.726,2.406,1.113
		c0.394,0.191,0.534,0.553,0.547,0.966c0.074,2.392,0.287,4.79,0.186,7.174c-0.207,4.885-1.34,9.515-4.418,13.48
		c-1.64,2.113-3.711,3.701-6.07,4.933c-0.063,0.032-0.127,0.072-0.195,0.083c-0.063,0.01-0.132-0.014-0.198-0.023
		c0.029-0.057,0.046-0.129,0.091-0.168c0.065-0.057,0.15-0.094,0.229-0.134c5.208-2.656,8.25-6.968,9.602-12.567
		c0.824-3.418,0.906-6.889,0.693-10.378c-0.041-0.655-0.083-1.311-0.148-1.965c-0.021-0.211,0.116-0.557-0.289-0.561
		c-0.311-0.002-0.646,0.361-0.631,0.672c0.029,0.586,0.091,1.168,0.13,1.753c0.307,4.576,0.104,9.093-1.64,13.416
		c-1.475,3.656-3.91,6.48-7.376,8.39c-0.163,0.089-0.37,0.099-0.556,0.145c0.145-0.117,0.288-0.237,0.436-0.351
		C18.014,150.771,18.174,150.662,18.331,150.549z"/>
</g>
<text transform="matrix(1 0 0 1 33.2769 135.8887)"><tspan x="0" y="0" fill="#186876" font-family="'MedulaOne-Regular'" font-size="12">Medieval</tspan><tspan x="0.21" y="14.4" fill="#186876" font-family="'MedulaOne-Regular'" font-size="12">Madness</tspan></text>
<text transform="matrix(1 0 0 1 7.2822 135.5732)" fill="#FFFFFF" font-family="'MedulaOne-Regular'" font-size="8.623">M</text>
<g>
	<path fill-rule="evenodd" clip-rule="evenodd" fill="#186876" d="M80.375,148.158c-0.084-0.091-0.154-0.198-0.252-0.268
		c-3.578-2.559-5.582-6.117-6.559-10.326c-0.758-3.266-0.824-6.575-0.594-9.9c0.037-0.53,0.107-1.062,0.116-1.593
		c0.008-0.449,0.215-0.754,0.593-0.928c0.868-0.4,1.718-0.896,2.632-1.129c1.802-0.461,3.639-0.784,5.466-1.137
		c0.579-0.111,0.676-0.013,0.631,0.562c-0.342,4.306-0.194,8.618-0.203,12.928c-0.006,2.447,0.072,4.895,0.119,7.342
		c0.004,0.211,0.076,0.423,0.064,0.631c-0.01,0.166-0.055,0.396-0.167,0.47c-0.096,0.062-0.337-0.022-0.468-0.109
		c-0.354-0.235-0.672-0.524-1.025-0.76c-0.589-0.392-0.709-0.401-1.186,0.105c-0.346,0.368-0.619,0.81-0.892,1.239
		c-0.169,0.268-0.077,0.49,0.212,0.658c0.984,0.574,1.98,1.121,3.111,1.346c0.404,0.08,0.587,0.279,0.559,0.689
		c-0.018,0.266-0.02,0.532-0.021,0.799c-0.002,0.354-0.149,0.453-0.464,0.276c-0.387-0.218-0.771-0.44-1.16-0.653
		c-0.169-0.094-0.348-0.168-0.523-0.25L80.375,148.158z"/>
	<path fill-rule="evenodd" clip-rule="evenodd" fill="#186876" d="M86.581,148.674c-0.132,0.051-0.263,0.104-0.396,0.148
		c-0.163,0.055-0.328,0.1-0.492,0.148c-0.031-0.184-0.105-0.373-0.086-0.553c0.109-0.928,0.135-0.879,1.049-1.203
		c0.862-0.307,1.718-0.669,2.514-1.117c0.648-0.364,0.693-0.813,0.176-1.348c-0.422-0.437-0.947-0.781-1.459-1.116
		c-0.322-0.21-0.581-0.093-0.746,0.292c-0.1,0.232-0.282,0.451-0.48,0.613c-0.131,0.107-0.428,0.194-0.521,0.123
		c-0.133-0.102-0.203-0.359-0.202-0.549c0.003-0.654,0.069-1.309,0.075-1.963c0.01-1.172-0.02-2.344-0.009-3.515
		c0.029-2.979,0.105-5.958,0.098-8.938c-0.005-1.964-0.134-3.928-0.187-5.893c-0.025-0.961-0.004-0.965,0.936-0.828
		c1.9,0.275,3.785,0.629,5.584,1.32c0.641,0.246,1.257,0.577,1.846,0.934c0.208,0.127,0.408,0.434,0.43,0.674
		c0.381,4.172,0.439,8.329-0.668,12.422c-0.43,1.583-1.02,3.101-1.83,4.528c-0.104,0.184-0.174,0.387-0.26,0.582
		C90.57,145.602,88.785,147.354,86.581,148.674z"/>
	<path fill-rule="evenodd" clip-rule="evenodd" fill="#186876" d="M83.896,117.296c-0.191,1.637-0.461,3.271-0.558,4.914
		c-0.166,2.816-0.283,5.638-0.314,8.458c-0.043,3.867,0.011,7.736,0.032,11.605c0.002,0.252,0.088,0.503,0.135,0.755
		c0.195-0.216,0.502-0.403,0.563-0.652c0.193-0.786,0.389-1.591,0.414-2.394c0.07-2.252,0.055-4.508,0.077-6.762
		c0.001-0.108,0.034-0.217,0.052-0.324c0.011,0.104,0.031,0.208,0.031,0.313c-0.004,2.521-0.039,5.042,0.004,7.563
		c0.011,0.654,0.25,1.307,0.409,1.955c0.027,0.11,0.184,0.188,0.28,0.282c0.047-0.126,0.129-0.249,0.135-0.376
		c0.057-1.455,0.143-2.909,0.145-4.363c0.005-3.603,0.024-7.206-0.063-10.807c-0.087-3.53-0.229-7.062-0.851-10.552
		c0.152,0.559,0.381,1.109,0.443,1.678c0.188,1.706,0.334,3.418,0.457,5.129c0.355,4.959,0.175,9.927,0.217,14.89
		c0.016,1.822-0.137,3.646-0.18,5.469c-0.009,0.381,0.102,0.771,0.215,1.141c0.033,0.104,0.282,0.226,0.408,0.204
		c0.625-0.105,1.213-0.316,1.561-0.9c0.166-0.279,0.377-0.346,0.599-0.131c0.321,0.312,0.603,0.666,0.901,1.003
		c-0.305,0.224-0.58,0.52-0.918,0.657c-0.77,0.312-1.557,0.608-2.364,0.786c-0.461,0.101-0.591,0.329-0.621,0.703
		c-0.06,0.742-0.118,1.484-0.134,2.227c-0.023,1.029-0.006,2.059-0.006,3.088c-0.839-0.104-0.965,0.002-0.965,0.828
		c-0.001,0.266-0.015,0.532,0.017,0.794c0.015,0.12,0.142,0.335,0.185,0.327c0.27-0.049,0.557-0.106,0.781-0.25
		c0.106-0.068,0.129-0.334,0.118-0.506c-0.024-0.402-0.093-0.803-0.143-1.203c0.124,0.495,0.271,0.986,0.356,1.488
		c0.021,0.12-0.126,0.328-0.252,0.404c-0.656,0.398-1.366,0.445-2.102,0.252c-0.306-0.08-0.396-0.248-0.314-0.551
		c0.437-1.625,0.469-3.291,0.468-4.957c-0.001-0.725-0.073-1.449-0.104-2.175c-0.015-0.322-0.182-0.483-0.492-0.518
		c-1.066-0.116-1.992-0.606-2.921-1.095c-0.339-0.177-0.378-0.391-0.153-0.676c0.12-0.152,0.257-0.292,0.383-0.441
		c0.232-0.275,0.461-0.244,0.736-0.042c0.441,0.323,0.881,0.667,1.366,0.911c0.58,0.293,0.843,0.124,0.974-0.518
		c0.038-0.189,0.072-0.387,0.068-0.579c-0.013-0.649-0.053-1.298-0.066-1.946c-0.034-1.63-0.078-3.26-0.084-4.891
		c-0.016-3.852-0.086-7.704,0.012-11.553c0.065-2.561,0.205-5.134,0.745-7.656C83.65,117.96,83.789,117.631,83.896,117.296z
		 M83.846,147.079c-0.529-0.011-0.585,0.046-0.566,0.504c0.019,0.425,0.014,0.85,0.017,1.274c0.007,0.846,0.111,1.706-0.018,2.53
		c-0.09,0.572,0.165,0.563,0.511,0.575c0.244,0.008,0.499-0.018,0.73-0.088c0.114-0.035,0.258-0.203,0.265-0.318
		c0.034-0.633,0.105-1.279,0.017-1.899c-0.068-0.478,0.266-1.046-0.256-1.442c0.039-0.027,0.074-0.067,0.117-0.078
		c0.403-0.099,0.179-0.441,0.23-0.664c0.014-0.059-0.262-0.218-0.424-0.275C84.271,147.127,84.054,147.115,83.846,147.079z
		 M84.146,146.593c0.563-0.052,1.146-0.03,1.686-0.173c0.814-0.216,1.603-0.535,2.395-0.833c0.341-0.129,0.331-0.355,0.105-0.62
		c-0.342-0.4-0.416-0.396-0.836-0.033c-0.91,0.785-1.916,1.102-3.094,0.628c-0.182-0.073-0.451-0.043-0.637,0.038
		c-0.674,0.297-1.354,0.32-2.014,0.043c-0.451-0.189-0.846-0.509-1.285-0.734c-0.135-0.069-0.381-0.09-0.491-0.013
		c-0.392,0.277-0.368,0.515,0.063,0.741C81.322,146.314,82.697,146.592,84.146,146.593z M85.042,144.207
		c0.061-0.932-0.032-1.026-0.968-0.982c-0.193,0.01-0.386,0.056-0.578,0.084c-0.333,0.05-0.428,0.23-0.381,0.563
		c0.057,0.4,0.05,0.81,0.078,1.214c0.009,0.133,0.042,0.262,0.064,0.393c0.129-0.043,0.289-0.053,0.383-0.137
		c0.354-0.311,0.697-0.277,1.057-0.028c0.029,0.02,0.063,0.04,0.096,0.046c0.115,0.021,0.23,0.035,0.347,0.052
		c-0.001-0.103,0.004-0.206-0.005-0.308C85.106,144.805,85.073,144.506,85.042,144.207z M83.886,153.941
		C83.885,153.941,83.885,153.941,83.886,153.941c-0.001-0.213,0.052-0.445-0.019-0.633c-0.058-0.156-0.246-0.326-0.404-0.359
		c-0.109-0.023-0.344,0.148-0.387,0.279c-0.119,0.368-0.164,0.761-0.246,1.143c-0.057,0.256,0.029,0.398,0.287,0.47
		c0.61,0.171,0.762,0.063,0.769-0.58C83.887,154.154,83.886,154.048,83.886,153.941z"/>
	<path fill-rule="evenodd" clip-rule="evenodd" fill="#186876" d="M80.365,148.15c0.488,0.318,0.974,0.639,1.463,0.953
		c0.164,0.105,0.34,0.193,0.504,0.299c0.035,0.023,0.045,0.087,0.066,0.132c-0.047,0.013-0.104,0.047-0.141,0.032
		c-0.164-0.064-0.327-0.136-0.483-0.219c-3.94-2.096-6.542-5.323-7.999-9.506c-1.143-3.28-1.473-6.68-1.393-10.13
		c0.026-1.117,0.122-2.232,0.181-3.35c0.015-0.283,0.079-0.59-0.009-0.843c-0.065-0.192-0.334-0.313-0.513-0.468
		c-0.067,0.104-0.183,0.202-0.193,0.311c-0.472,4.712-0.519,9.4,0.871,13.993c1.522,5.029,4.56,8.81,9.3,11.17
		c0.154,0.076,0.271,0.227,0.406,0.344c-0.18-0.046-0.375-0.061-0.537-0.143c-4.748-2.391-7.815-6.197-9.398-11.234
		c-0.57-1.814-0.951-3.673-1.079-5.574c-0.095-1.413-0.228-2.83-0.205-4.243c0.026-1.626,0.192-3.251,0.333-4.873
		c0.019-0.205,0.213-0.444,0.393-0.578c1.074-0.797,2.338-1.184,3.601-1.545c2.118-0.605,4.284-0.974,6.476-1.194
		c0.148-0.015,0.31,0.097,0.465,0.15c-0.145,0.099-0.277,0.257-0.435,0.288c-1.951,0.373-3.927,0.645-5.853,1.119
		c-1.227,0.303-2.385,0.891-3.563,1.375c-0.136,0.056-0.207,0.268-0.309,0.406c0.222,0.047,0.517,0.21,0.652,0.123
		c1.762-1.129,3.752-1.587,5.754-1.997c1.025-0.21,2.066-0.343,3.102-0.493c0.147-0.021,0.308,0.051,0.462,0.08
		c-0.14,0.053-0.276,0.132-0.422,0.152c-2.059,0.291-4.114,0.611-6.083,1.303c-0.832,0.292-1.627,0.699-2.406,1.117
		c-0.227,0.121-0.461,0.444-0.484,0.694c-0.445,4.679-0.456,9.329,1.08,13.855c1.113,3.283,2.973,6.037,5.77,8.123
		c0.197,0.146,0.424,0.252,0.637,0.377L80.365,148.15z"/>
	<path fill-rule="evenodd" clip-rule="evenodd" fill="#186876" d="M86.581,148.674c2.204-1.32,3.989-3.072,5.37-5.236
		c0.509-0.973,1.098-1.911,1.51-2.922c1.069-2.627,1.553-5.396,1.596-8.218c0.033-2.145-0.127-4.292-0.189-6.438
		c-0.01-0.366-0.197-0.585-0.477-0.774c-1.062-0.72-2.254-1.143-3.481-1.432c-1.45-0.34-2.923-0.582-4.384-0.877
		c-0.192-0.039-0.372-0.139-0.559-0.211c0.199-0.016,0.402-0.067,0.594-0.041c2.22,0.311,4.422,0.702,6.514,1.545
		c0.524,0.211,1.016,0.506,1.521,0.764c0.095,0.048,0.2,0.162,0.275,0.145c0.211-0.051,0.409-0.154,0.611-0.238
		c-0.107-0.137-0.186-0.34-0.325-0.398c-1.012-0.427-2.008-0.938-3.063-1.205c-1.77-0.449-3.578-0.737-5.371-1.092
		c-0.191-0.037-0.393-0.041-0.575-0.104c-0.11-0.039-0.19-0.16-0.284-0.245c0.113-0.062,0.232-0.185,0.339-0.175
		c0.511,0.047,1.026,0.093,1.526,0.203c1.866,0.416,3.742,0.801,5.583,1.313c0.841,0.232,1.61,0.726,2.406,1.113
		c0.394,0.191,0.534,0.553,0.547,0.966c0.074,2.392,0.287,4.79,0.186,7.174c-0.207,4.885-1.341,9.515-4.418,13.48
		c-1.64,2.113-3.712,3.701-6.07,4.933c-0.063,0.032-0.128,0.072-0.194,0.083c-0.064,0.01-0.133-0.014-0.199-0.023
		c0.029-0.057,0.047-0.129,0.092-0.168c0.065-0.057,0.15-0.094,0.229-0.134c5.208-2.656,8.25-6.968,9.603-12.567
		c0.824-3.418,0.906-6.889,0.693-10.378c-0.041-0.655-0.083-1.311-0.148-1.965c-0.021-0.211,0.116-0.557-0.289-0.561
		c-0.311-0.002-0.646,0.361-0.631,0.672c0.029,0.586,0.091,1.168,0.13,1.753c0.307,4.576,0.104,9.093-1.64,13.416
		c-1.475,3.656-3.91,6.48-7.376,8.39c-0.162,0.089-0.369,0.099-0.557,0.145c0.146-0.117,0.288-0.237,0.437-0.351
		C86.264,148.896,86.424,148.787,86.581,148.674z"/>
</g>
<text transform="matrix(1 0 0 1 75.5322 133.6982)" fill="#FFFFFF" font-family="'MedulaOne-Regular'" font-size="8.623">M</text>
<line fill="none" stroke="#000000" stroke-miterlimit="10" x1="66.5" y1="160" x2="66.5" y2="0"/>
<rect y="70" fill="#231F20" width="100" height="45"/>
<line fill="#FFFFFF" stroke="#F2F2F2" stroke-miterlimit="10" x1="66.5" y1="115" x2="66.5" y2="70"/>
<g>
	<path fill-rule="evenodd" clip-rule="evenodd" fill="#CCDBF1" d="M13.625,104.783c-0.083-0.091-0.153-0.198-0.251-0.268
		c-3.579-2.559-5.583-6.117-6.559-10.326c-0.757-3.266-0.824-6.575-0.593-9.9c0.037-0.53,0.107-1.062,0.116-1.593
		c0.008-0.449,0.215-0.754,0.593-0.928c0.868-0.4,1.718-0.896,2.632-1.129c1.801-0.461,3.639-0.784,5.466-1.137
		c0.579-0.111,0.676-0.013,0.63,0.562c-0.341,4.306-0.194,8.618-0.203,12.928c-0.005,2.447,0.073,4.895,0.119,7.342
		c0.004,0.211,0.077,0.423,0.065,0.631c-0.009,0.166-0.055,0.396-0.167,0.47c-0.096,0.062-0.336-0.022-0.467-0.109
		c-0.354-0.235-0.673-0.524-1.026-0.76c-0.588-0.392-0.708-0.401-1.186,0.105c-0.346,0.368-0.619,0.81-0.891,1.239
		c-0.169,0.268-0.077,0.49,0.211,0.658c0.984,0.574,1.98,1.121,3.112,1.346c0.404,0.08,0.587,0.279,0.559,0.689
		c-0.018,0.266-0.019,0.532-0.021,0.799c-0.002,0.354-0.15,0.453-0.464,0.276c-0.387-0.218-0.771-0.44-1.16-0.653
		c-0.169-0.094-0.349-0.168-0.523-0.25L13.625,104.783z"/>
	<path fill-rule="evenodd" clip-rule="evenodd" fill="#CCDBF1" d="M19.831,105.299c-0.132,0.051-0.262,0.104-0.396,0.148
		c-0.163,0.055-0.328,0.1-0.492,0.148c-0.031-0.184-0.105-0.373-0.085-0.553c0.108-0.928,0.134-0.879,1.048-1.203
		c0.863-0.307,1.718-0.669,2.514-1.117c0.648-0.364,0.694-0.813,0.176-1.348c-0.421-0.437-0.947-0.781-1.459-1.116
		c-0.322-0.21-0.581-0.093-0.746,0.292c-0.1,0.232-0.283,0.451-0.48,0.613c-0.132,0.107-0.428,0.194-0.522,0.123
		c-0.133-0.102-0.203-0.359-0.202-0.549c0.003-0.654,0.07-1.309,0.076-1.963c0.01-1.172-0.021-2.344-0.009-3.515
		c0.029-2.979,0.105-5.958,0.098-8.938c-0.005-1.964-0.134-3.928-0.187-5.893c-0.026-0.961-0.004-0.965,0.936-0.828
		c1.9,0.275,3.785,0.629,5.583,1.32c0.642,0.246,1.257,0.577,1.846,0.934c0.208,0.127,0.408,0.434,0.43,0.674
		c0.38,4.172,0.438,8.329-0.669,12.422c-0.429,1.583-1.02,3.101-1.83,4.528c-0.104,0.184-0.173,0.387-0.259,0.582
		C23.82,102.227,22.036,103.979,19.831,105.299z"/>
	<path fill-rule="evenodd" clip-rule="evenodd" fill="#CCDBF1" d="M17.146,73.921c-0.191,1.637-0.46,3.271-0.558,4.914
		c-0.166,2.816-0.283,5.638-0.314,8.458c-0.043,3.867,0.011,7.736,0.033,11.605c0.001,0.252,0.088,0.503,0.135,0.755
		c0.195-0.216,0.501-0.403,0.563-0.652c0.193-0.786,0.389-1.591,0.414-2.394c0.07-2.252,0.055-4.508,0.077-6.762
		c0.001-0.108,0.034-0.217,0.052-0.324c0.011,0.104,0.031,0.208,0.031,0.313c-0.004,2.521-0.038,5.042,0.004,7.563
		c0.011,0.654,0.25,1.307,0.41,1.955c0.027,0.11,0.184,0.188,0.281,0.282c0.046-0.126,0.128-0.249,0.134-0.376
		c0.058-1.455,0.143-2.909,0.145-4.363c0.005-3.603,0.025-7.206-0.063-10.807c-0.086-3.53-0.229-7.062-0.851-10.552
		c0.153,0.559,0.381,1.109,0.443,1.678c0.188,1.706,0.334,3.418,0.458,5.129c0.356,4.959,0.175,9.927,0.217,14.89
		c0.016,1.822-0.137,3.646-0.18,5.469c-0.009,0.381,0.102,0.771,0.215,1.141c0.032,0.104,0.282,0.226,0.408,0.204
		c0.624-0.105,1.212-0.316,1.56-0.9c0.167-0.279,0.376-0.346,0.599-0.131c0.322,0.312,0.603,0.666,0.901,1.003
		c-0.304,0.224-0.579,0.52-0.918,0.657c-0.77,0.312-1.557,0.608-2.364,0.786c-0.461,0.101-0.591,0.329-0.621,0.703
		c-0.059,0.742-0.118,1.484-0.134,2.227c-0.022,1.029-0.005,2.059-0.005,3.088c-0.839-0.104-0.965,0.002-0.966,0.828
		c0,0.266-0.014,0.532,0.017,0.794c0.015,0.12,0.141,0.335,0.184,0.327c0.27-0.049,0.557-0.106,0.782-0.25
		c0.106-0.068,0.129-0.334,0.118-0.506c-0.024-0.402-0.092-0.803-0.143-1.203c0.125,0.495,0.271,0.986,0.357,1.488
		c0.021,0.12-0.126,0.328-0.252,0.404c-0.657,0.398-1.367,0.445-2.103,0.252c-0.305-0.08-0.395-0.248-0.313-0.551
		c0.436-1.625,0.468-3.291,0.467-4.957c0-0.725-0.073-1.449-0.105-2.175c-0.014-0.322-0.181-0.483-0.492-0.518
		c-1.066-0.116-1.992-0.606-2.921-1.095c-0.338-0.177-0.378-0.391-0.154-0.676c0.121-0.152,0.257-0.292,0.383-0.441
		c0.232-0.275,0.461-0.244,0.737-0.042c0.442,0.323,0.881,0.667,1.366,0.911c0.58,0.293,0.843,0.124,0.973-0.518
		c0.039-0.189,0.073-0.387,0.069-0.579c-0.013-0.649-0.053-1.298-0.067-1.946c-0.034-1.63-0.078-3.26-0.084-4.891
		c-0.015-3.852-0.086-7.704,0.012-11.553c0.065-2.561,0.205-5.134,0.745-7.656C16.901,74.585,17.039,74.256,17.146,73.921z
		 M17.095,103.704c-0.528-0.011-0.584,0.046-0.565,0.504c0.018,0.425,0.013,0.85,0.016,1.274c0.006,0.846,0.111,1.706-0.018,2.53
		c-0.09,0.572,0.165,0.563,0.511,0.575c0.244,0.008,0.499-0.018,0.73-0.088c0.114-0.035,0.258-0.203,0.265-0.318
		c0.035-0.633,0.105-1.279,0.017-1.899c-0.068-0.478,0.265-1.046-0.256-1.442c0.039-0.027,0.075-0.067,0.118-0.078
		c0.403-0.099,0.178-0.441,0.229-0.664c0.014-0.059-0.262-0.218-0.424-0.275C17.521,103.752,17.304,103.74,17.095,103.704z
		 M17.397,103.218c0.563-0.052,1.146-0.03,1.685-0.173c0.815-0.216,1.603-0.535,2.395-0.833c0.341-0.129,0.332-0.355,0.105-0.62
		c-0.341-0.4-0.416-0.396-0.836-0.033c-0.909,0.785-1.915,1.102-3.094,0.628c-0.181-0.073-0.451-0.043-0.636,0.038
		c-0.673,0.297-1.354,0.32-2.014,0.043c-0.451-0.189-0.846-0.509-1.284-0.734c-0.136-0.069-0.382-0.09-0.492-0.013
		c-0.392,0.277-0.369,0.515,0.063,0.741C14.572,102.939,15.948,103.217,17.397,103.218z M18.292,100.832
		c0.061-0.932-0.032-1.026-0.968-0.982c-0.194,0.01-0.386,0.056-0.579,0.084c-0.333,0.05-0.427,0.23-0.38,0.563
		c0.057,0.4,0.049,0.81,0.078,1.214c0.009,0.133,0.042,0.262,0.064,0.393c0.13-0.043,0.289-0.053,0.383-0.137
		c0.354-0.311,0.697-0.277,1.057-0.028c0.029,0.02,0.062,0.04,0.095,0.046c0.115,0.021,0.231,0.035,0.347,0.052
		c-0.001-0.103,0.004-0.206-0.005-0.308C18.356,101.43,18.323,101.131,18.292,100.832z M17.136,110.566c0,0-0.001,0-0.001,0
		c0-0.213,0.053-0.445-0.017-0.633c-0.058-0.156-0.246-0.326-0.404-0.359c-0.109-0.023-0.345,0.148-0.387,0.279
		c-0.119,0.368-0.164,0.761-0.247,1.143c-0.056,0.256,0.03,0.398,0.288,0.47c0.61,0.171,0.761,0.063,0.768-0.58
		C17.137,110.779,17.136,110.673,17.136,110.566z"/>
	<path fill-rule="evenodd" clip-rule="evenodd" fill="#CCDBF1" d="M13.616,104.775c0.487,0.318,0.973,0.639,1.463,0.953
		c0.164,0.105,0.339,0.193,0.503,0.299c0.036,0.023,0.044,0.087,0.066,0.132c-0.047,0.013-0.103,0.047-0.14,0.032
		c-0.165-0.064-0.328-0.136-0.484-0.219c-3.94-2.096-6.542-5.323-7.999-9.506c-1.143-3.28-1.473-6.68-1.392-10.13
		c0.026-1.117,0.122-2.232,0.18-3.35c0.015-0.283,0.079-0.59-0.008-0.843c-0.066-0.192-0.335-0.313-0.513-0.468
		c-0.067,0.104-0.183,0.202-0.193,0.311c-0.472,4.712-0.519,9.4,0.871,13.993c1.522,5.029,4.56,8.81,9.299,11.17
		c0.155,0.076,0.272,0.227,0.407,0.344c-0.18-0.046-0.375-0.061-0.537-0.143c-4.749-2.391-7.816-6.197-9.398-11.234
		c-0.571-1.814-0.952-3.673-1.08-5.574c-0.095-1.413-0.228-2.83-0.205-4.243c0.026-1.626,0.192-3.251,0.333-4.873
		c0.018-0.205,0.212-0.444,0.392-0.578c1.075-0.797,2.337-1.184,3.601-1.545c2.119-0.605,4.285-0.974,6.475-1.194
		c0.149-0.015,0.31,0.097,0.465,0.15c-0.144,0.099-0.277,0.257-0.435,0.288c-1.951,0.373-3.927,0.645-5.853,1.119
		c-1.227,0.303-2.384,0.891-3.563,1.375c-0.135,0.056-0.207,0.268-0.308,0.406c0.221,0.047,0.516,0.21,0.652,0.123
		c1.761-1.129,3.751-1.587,5.754-1.997c1.024-0.21,2.065-0.343,3.102-0.493c0.147-0.021,0.307,0.051,0.461,0.08
		c-0.14,0.053-0.277,0.132-0.422,0.152c-2.059,0.291-4.115,0.611-6.083,1.303c-0.832,0.292-1.627,0.699-2.407,1.117
		c-0.226,0.121-0.46,0.444-0.484,0.694c-0.446,4.679-0.456,9.329,1.08,13.855c1.114,3.283,2.973,6.037,5.771,8.123
		c0.196,0.146,0.423,0.252,0.636,0.377L13.616,104.775z"/>
	<path fill-rule="evenodd" clip-rule="evenodd" fill="#CCDBF1" d="M19.831,105.299c2.205-1.32,3.989-3.072,5.371-5.236
		c0.508-0.973,1.097-1.911,1.509-2.922c1.07-2.627,1.553-5.396,1.596-8.218c0.033-2.145-0.127-4.292-0.189-6.438
		c-0.01-0.366-0.198-0.585-0.477-0.774c-1.061-0.72-2.253-1.143-3.481-1.432c-1.45-0.34-2.923-0.582-4.384-0.877
		c-0.192-0.039-0.372-0.139-0.558-0.211c0.198-0.016,0.401-0.067,0.594-0.041c2.219,0.311,4.422,0.702,6.514,1.545
		c0.524,0.211,1.015,0.506,1.52,0.764c0.095,0.048,0.2,0.162,0.275,0.145c0.211-0.051,0.409-0.154,0.611-0.238
		c-0.107-0.137-0.186-0.34-0.325-0.398c-1.012-0.427-2.007-0.938-3.063-1.205c-1.769-0.449-3.578-0.737-5.371-1.092
		c-0.192-0.037-0.393-0.041-0.575-0.104c-0.11-0.039-0.19-0.16-0.284-0.245c0.113-0.062,0.231-0.185,0.338-0.175
		c0.511,0.047,1.026,0.093,1.526,0.203c1.867,0.416,3.743,0.801,5.583,1.313c0.84,0.232,1.61,0.726,2.406,1.113
		c0.394,0.191,0.534,0.553,0.547,0.966c0.074,2.392,0.287,4.79,0.186,7.174c-0.207,4.885-1.34,9.515-4.418,13.48
		c-1.64,2.113-3.711,3.701-6.07,4.933c-0.063,0.032-0.127,0.072-0.195,0.083c-0.063,0.01-0.132-0.014-0.198-0.023
		c0.029-0.057,0.046-0.129,0.091-0.168c0.065-0.057,0.15-0.094,0.229-0.134c5.208-2.656,8.25-6.968,9.602-12.567
		c0.824-3.418,0.906-6.889,0.693-10.378c-0.041-0.655-0.083-1.311-0.148-1.965c-0.021-0.211,0.116-0.557-0.289-0.561
		c-0.311-0.002-0.646,0.361-0.631,0.672c0.029,0.586,0.091,1.168,0.13,1.753c0.307,4.576,0.104,9.093-1.64,13.416
		c-1.475,3.656-3.91,6.48-7.376,8.39c-0.163,0.089-0.37,0.099-0.556,0.145c0.145-0.117,0.288-0.237,0.436-0.351
		C19.514,105.521,19.674,105.412,19.831,105.299z"/>
</g>
<text transform="matrix(1 0 0 1 34.7769 90.6387)"><tspan x="0" y="0" fill="#CCDBF1" font-family="'MedulaOne-Regular'" font-size="12">Medieval</tspan><tspan x="0.21" y="14.4" fill="#CCDBF1" font-family="'MedulaOne-Regular'" font-size="12">Madness</tspan></text>
<text transform="matrix(1 0 0 1 8.7822 91.3232)" fill="#231F20" font-family="'MedulaOne-Regular'" font-size="8.623">M</text>
<g>
	<path fill-rule="evenodd" clip-rule="evenodd" fill="#CCDBF1" d="M81.875,102.908c-0.084-0.091-0.154-0.198-0.252-0.268
		c-3.578-2.559-5.582-6.117-6.559-10.326c-0.758-3.266-0.824-6.575-0.594-9.9c0.037-0.53,0.107-1.062,0.116-1.593
		c0.008-0.449,0.215-0.754,0.593-0.928c0.868-0.4,1.718-0.896,2.632-1.129c1.802-0.461,3.639-0.784,5.466-1.137
		c0.579-0.111,0.676-0.013,0.631,0.562c-0.342,4.306-0.194,8.618-0.203,12.928c-0.006,2.447,0.072,4.895,0.119,7.342
		c0.004,0.211,0.076,0.423,0.064,0.631c-0.01,0.166-0.055,0.396-0.167,0.47c-0.096,0.062-0.337-0.022-0.468-0.109
		c-0.354-0.235-0.672-0.524-1.025-0.76c-0.589-0.392-0.709-0.401-1.186,0.105c-0.346,0.368-0.619,0.81-0.892,1.239
		c-0.169,0.268-0.077,0.49,0.212,0.658c0.984,0.574,1.98,1.121,3.111,1.346c0.404,0.08,0.587,0.279,0.559,0.689
		c-0.018,0.266-0.02,0.532-0.021,0.799c-0.002,0.354-0.149,0.453-0.464,0.276c-0.387-0.218-0.771-0.44-1.16-0.653
		c-0.169-0.094-0.348-0.168-0.523-0.25L81.875,102.908z"/>
	<path fill-rule="evenodd" clip-rule="evenodd" fill="#CCDBF1" d="M88.081,103.424c-0.132,0.051-0.263,0.104-0.396,0.148
		c-0.163,0.055-0.328,0.1-0.492,0.148c-0.031-0.184-0.105-0.373-0.086-0.553c0.109-0.928,0.135-0.879,1.049-1.203
		c0.862-0.307,1.718-0.669,2.514-1.117c0.648-0.364,0.693-0.813,0.176-1.348c-0.422-0.437-0.947-0.781-1.459-1.116
		c-0.322-0.21-0.581-0.093-0.746,0.292c-0.1,0.232-0.282,0.451-0.48,0.613c-0.131,0.107-0.428,0.194-0.521,0.123
		c-0.133-0.102-0.203-0.359-0.202-0.549c0.003-0.654,0.069-1.309,0.075-1.963c0.01-1.172-0.02-2.344-0.009-3.515
		c0.029-2.979,0.105-5.958,0.098-8.938c-0.005-1.964-0.134-3.928-0.187-5.893c-0.025-0.961-0.004-0.965,0.936-0.828
		c1.9,0.275,3.785,0.629,5.584,1.32c0.641,0.246,1.257,0.577,1.846,0.934c0.208,0.127,0.408,0.434,0.43,0.674
		c0.381,4.172,0.439,8.329-0.668,12.422c-0.43,1.583-1.02,3.101-1.83,4.528c-0.104,0.184-0.174,0.387-0.26,0.582
		C92.07,100.352,90.285,102.104,88.081,103.424z"/>
	<path fill-rule="evenodd" clip-rule="evenodd" fill="#CCDBF1" d="M85.396,72.046c-0.191,1.637-0.461,3.271-0.558,4.914
		c-0.166,2.816-0.283,5.638-0.314,8.458c-0.043,3.867,0.011,7.736,0.032,11.605c0.002,0.252,0.088,0.503,0.135,0.755
		c0.195-0.216,0.502-0.403,0.563-0.652c0.193-0.786,0.389-1.591,0.414-2.394c0.07-2.252,0.055-4.508,0.077-6.762
		c0.001-0.108,0.034-0.217,0.052-0.324c0.011,0.104,0.031,0.208,0.031,0.313c-0.004,2.521-0.039,5.042,0.004,7.563
		c0.011,0.654,0.25,1.307,0.409,1.955c0.027,0.11,0.184,0.188,0.28,0.282c0.047-0.126,0.129-0.249,0.135-0.376
		c0.057-1.455,0.143-2.909,0.145-4.363c0.005-3.603,0.024-7.206-0.063-10.807c-0.087-3.53-0.229-7.062-0.851-10.552
		c0.152,0.559,0.381,1.109,0.443,1.678c0.188,1.706,0.334,3.418,0.457,5.129c0.355,4.959,0.175,9.927,0.217,14.89
		c0.016,1.822-0.137,3.646-0.18,5.469c-0.009,0.381,0.102,0.771,0.215,1.141c0.033,0.104,0.282,0.226,0.408,0.204
		c0.625-0.105,1.213-0.316,1.561-0.9c0.166-0.279,0.377-0.346,0.599-0.131c0.321,0.312,0.603,0.666,0.901,1.003
		c-0.305,0.224-0.58,0.52-0.918,0.657c-0.77,0.312-1.557,0.608-2.364,0.786c-0.461,0.101-0.591,0.329-0.621,0.703
		c-0.06,0.742-0.118,1.484-0.134,2.227c-0.023,1.029-0.006,2.059-0.006,3.088c-0.839-0.104-0.965,0.002-0.965,0.828
		c-0.001,0.266-0.015,0.532,0.017,0.794c0.015,0.12,0.142,0.335,0.185,0.327c0.27-0.049,0.557-0.106,0.781-0.25
		c0.106-0.068,0.129-0.334,0.118-0.506c-0.024-0.402-0.093-0.803-0.143-1.203c0.124,0.495,0.271,0.986,0.356,1.488
		c0.021,0.12-0.126,0.328-0.252,0.404c-0.656,0.398-1.366,0.445-2.102,0.252c-0.306-0.08-0.396-0.248-0.314-0.551
		c0.437-1.625,0.469-3.291,0.468-4.957c-0.001-0.725-0.073-1.449-0.104-2.175c-0.015-0.322-0.182-0.483-0.492-0.518
		c-1.066-0.116-1.992-0.606-2.921-1.095c-0.339-0.177-0.378-0.391-0.153-0.676c0.12-0.152,0.257-0.292,0.383-0.441
		c0.232-0.275,0.461-0.244,0.736-0.042c0.441,0.323,0.881,0.667,1.366,0.911c0.58,0.293,0.843,0.124,0.974-0.518
		c0.038-0.189,0.072-0.387,0.068-0.579c-0.013-0.649-0.053-1.298-0.066-1.946c-0.034-1.63-0.078-3.26-0.084-4.891
		c-0.016-3.852-0.086-7.704,0.012-11.553c0.065-2.561,0.205-5.134,0.745-7.656C85.15,72.71,85.289,72.381,85.396,72.046z
		 M85.346,101.829c-0.529-0.011-0.585,0.046-0.566,0.504c0.019,0.425,0.014,0.85,0.017,1.274c0.007,0.846,0.111,1.706-0.018,2.53
		c-0.09,0.572,0.165,0.563,0.511,0.575c0.244,0.008,0.499-0.018,0.73-0.088c0.114-0.035,0.258-0.203,0.265-0.318
		c0.034-0.633,0.105-1.279,0.017-1.899c-0.068-0.478,0.266-1.046-0.256-1.442c0.039-0.027,0.074-0.067,0.117-0.078
		c0.403-0.099,0.179-0.441,0.23-0.664c0.014-0.059-0.262-0.218-0.424-0.275C85.771,101.877,85.554,101.865,85.346,101.829z
		 M85.646,101.343c0.563-0.052,1.146-0.03,1.686-0.173c0.814-0.216,1.603-0.535,2.395-0.833c0.341-0.129,0.331-0.355,0.105-0.62
		c-0.342-0.4-0.416-0.396-0.836-0.033c-0.91,0.785-1.916,1.102-3.094,0.628c-0.182-0.073-0.451-0.043-0.637,0.038
		c-0.674,0.297-1.354,0.32-2.014,0.043c-0.451-0.189-0.846-0.509-1.285-0.734c-0.135-0.069-0.381-0.09-0.491-0.013
		c-0.392,0.277-0.368,0.515,0.063,0.741C82.822,101.064,84.197,101.342,85.646,101.343z M86.542,98.957
		c0.061-0.932-0.032-1.026-0.968-0.982c-0.193,0.01-0.386,0.056-0.578,0.084c-0.333,0.05-0.428,0.23-0.381,0.563
		c0.057,0.4,0.05,0.81,0.078,1.214c0.009,0.133,0.042,0.262,0.064,0.393c0.129-0.043,0.289-0.053,0.383-0.137
		c0.354-0.311,0.697-0.277,1.057-0.028c0.029,0.02,0.063,0.04,0.096,0.046c0.115,0.021,0.23,0.035,0.347,0.052
		c-0.001-0.103,0.004-0.206-0.005-0.308C86.606,99.555,86.573,99.256,86.542,98.957z M85.386,108.691
		C85.385,108.691,85.385,108.691,85.386,108.691c-0.001-0.213,0.052-0.445-0.019-0.633c-0.058-0.156-0.246-0.326-0.404-0.359
		c-0.109-0.023-0.344,0.148-0.387,0.279c-0.119,0.368-0.164,0.761-0.246,1.143c-0.057,0.256,0.029,0.398,0.287,0.47
		c0.61,0.171,0.762,0.063,0.769-0.58C85.387,108.904,85.386,108.798,85.386,108.691z"/>
	<path fill-rule="evenodd" clip-rule="evenodd" fill="#CCDBF1" d="M81.865,102.9c0.488,0.318,0.974,0.639,1.463,0.953
		c0.164,0.105,0.34,0.193,0.504,0.299c0.035,0.023,0.045,0.087,0.066,0.132c-0.047,0.013-0.104,0.047-0.141,0.032
		c-0.164-0.064-0.327-0.136-0.483-0.219c-3.94-2.096-6.542-5.323-7.999-9.506c-1.143-3.28-1.473-6.68-1.393-10.13
		c0.026-1.117,0.122-2.232,0.181-3.35c0.015-0.283,0.079-0.59-0.009-0.843c-0.065-0.192-0.334-0.313-0.513-0.468
		c-0.067,0.104-0.183,0.202-0.193,0.311c-0.472,4.712-0.519,9.4,0.871,13.993c1.522,5.029,4.56,8.81,9.3,11.17
		c0.154,0.076,0.271,0.227,0.406,0.344c-0.18-0.046-0.375-0.061-0.537-0.143c-4.748-2.391-7.815-6.197-9.398-11.234
		c-0.57-1.814-0.951-3.673-1.079-5.574c-0.095-1.413-0.228-2.83-0.205-4.243c0.026-1.626,0.192-3.251,0.333-4.873
		c0.019-0.205,0.213-0.444,0.393-0.578c1.074-0.797,2.338-1.184,3.601-1.545c2.118-0.605,4.284-0.974,6.476-1.194
		c0.148-0.015,0.31,0.097,0.465,0.15c-0.145,0.099-0.277,0.257-0.435,0.288c-1.951,0.373-3.927,0.645-5.853,1.119
		c-1.227,0.303-2.385,0.891-3.563,1.375c-0.136,0.056-0.207,0.268-0.309,0.406c0.222,0.047,0.517,0.21,0.652,0.123
		c1.762-1.129,3.752-1.587,5.754-1.997c1.025-0.21,2.066-0.343,3.102-0.493c0.147-0.021,0.308,0.051,0.462,0.08
		c-0.14,0.053-0.276,0.132-0.422,0.152c-2.059,0.291-4.114,0.611-6.083,1.303c-0.832,0.292-1.627,0.699-2.406,1.117
		c-0.227,0.121-0.461,0.444-0.484,0.694c-0.445,4.679-0.456,9.329,1.08,13.855c1.113,3.283,2.973,6.037,5.77,8.123
		c0.197,0.146,0.424,0.252,0.637,0.377L81.865,102.9z"/>
	<path fill-rule="evenodd" clip-rule="evenodd" fill="#CCDBF1" d="M88.081,103.424c2.204-1.32,3.989-3.072,5.37-5.236
		c0.509-0.973,1.098-1.911,1.51-2.922c1.069-2.627,1.553-5.396,1.596-8.218c0.033-2.145-0.127-4.292-0.189-6.438
		c-0.01-0.366-0.197-0.585-0.477-0.774c-1.062-0.72-2.254-1.143-3.481-1.432c-1.45-0.34-2.923-0.582-4.384-0.877
		c-0.192-0.039-0.372-0.139-0.559-0.211c0.199-0.016,0.402-0.067,0.594-0.041c2.22,0.311,4.422,0.702,6.514,1.545
		c0.524,0.211,1.016,0.506,1.521,0.764c0.095,0.048,0.2,0.162,0.275,0.145c0.211-0.051,0.409-0.154,0.611-0.238
		c-0.107-0.137-0.186-0.34-0.325-0.398c-1.012-0.427-2.008-0.938-3.063-1.205c-1.77-0.449-3.578-0.737-5.371-1.092
		c-0.191-0.037-0.393-0.041-0.575-0.104c-0.11-0.039-0.19-0.16-0.284-0.245c0.113-0.062,0.232-0.185,0.339-0.175
		c0.511,0.047,1.026,0.093,1.526,0.203c1.866,0.416,3.742,0.801,5.583,1.313c0.841,0.232,1.61,0.726,2.406,1.113
		c0.394,0.191,0.534,0.553,0.547,0.966c0.074,2.392,0.287,4.79,0.186,7.174c-0.207,4.885-1.341,9.515-4.418,13.48
		c-1.64,2.113-3.712,3.701-6.07,4.933c-0.063,0.032-0.128,0.072-0.194,0.083c-0.064,0.01-0.133-0.014-0.199-0.023
		c0.029-0.057,0.047-0.129,0.092-0.168c0.065-0.057,0.15-0.094,0.229-0.134c5.208-2.656,8.25-6.968,9.603-12.567
		c0.824-3.418,0.906-6.889,0.693-10.378c-0.041-0.655-0.083-1.311-0.148-1.965c-0.021-0.211,0.116-0.557-0.289-0.561
		c-0.311-0.002-0.646,0.361-0.631,0.672c0.029,0.586,0.091,1.168,0.13,1.753c0.307,4.576,0.104,9.093-1.64,13.416
		c-1.475,3.656-3.91,6.48-7.376,8.39c-0.162,0.089-0.369,0.099-0.557,0.145c0.146-0.117,0.288-0.237,0.437-0.351
		C87.764,103.646,87.924,103.537,88.081,103.424z"/>
</g>
<text transform="matrix(1 0 0 1 77.0322 89.4482)" fill="#231F20" font-family="'MedulaOne-Regular'" font-size="8.623">M</text>
</svg>
